<?xml version="1.0" encoding="UTF-8"?>
<svg width="17px" height="26px" viewBox="0 0 17 26" version="1.1" xmlns="http://www.w3.org/2000/svg" xmlns:xlink="http://www.w3.org/1999/xlink">
    <!-- Generator: Sketch 50 (54983) - http://www.bohemiancoding.com/sketch -->
    <title>keyboard_arrow_up - material</title>
    <desc>Created with Sketch.</desc>
    <defs></defs>
    <g id="Page-1" stroke="none" stroke-width="1" fill="none" fill-rule="evenodd">
        <g id="contacts" transform="translate(-16.000000, -31.000000)" fill="#424242">
            <path d="M13.703301,51.7734737 L12.1195212,50.0786922 C11.7603593,49.6943578 11.7603593,49.0974763 12.1195212,48.7131419 L23.2693714,36.7818359 C23.6464577,36.3783209 24.2792601,36.3568962 24.6827751,36.7339825 C24.6992616,36.7493891 24.7152219,36.7653494 24.7306286,36.7818359 L35.8804788,48.7131419 C36.2396407,49.0974763 36.2396407,49.6943578 35.8804788,50.0786922 L34.296699,51.7734737 C33.9196127,52.1769887 33.2868103,52.1984135 32.8832953,51.8213272 C32.8661743,51.8053275 32.849621,51.7887311 32.8336661,51.7715685 L24.7324044,43.0571287 C24.3563703,42.6526329 23.7236259,42.6295601 23.3191301,43.0055942 C23.3013315,43.0221404 23.2841419,43.03933 23.2675956,43.0571287 L15.1663339,51.7715685 C14.7902999,52.1760643 14.1575554,52.199137 13.7530596,51.823103 C13.7358971,51.807148 13.7193006,51.7905947 13.703301,51.7734737 Z" id="keyboard_arrow_up---material" transform="translate(24.000000, 44.000000) rotate(-90.000000) translate(-24.000000, -44.000000) "></path>
        </g>
    </g>
</svg>