<svg width="30" height="40" xmlns="http://www.w3.org/2000/svg"><g fill="#FFF" fill-rule="evenodd"><path d="M24.072 29.366c-1.21 1.808-2.638 3.282-4.188 4.292-1.552 1.01-3.213 1.561-4.949 1.562-1.736 0-3.397-.551-4.95-1.562-2.325-1.513-4.375-4.079-5.825-7.234-1.453-3.153-2.308-6.884-2.306-10.684.002-4.173 1.478-7.62 3.837-10.044 2.362-2.42 5.614-3.822 9.244-3.823 3.63.001 6.883 1.402 9.244 3.823 2.359 2.424 3.835 5.871 3.838 10.044.003 5.067-1.523 10.01-3.945 13.626zm-8.124 9.033h-1.823l.494-1.317c.105.004.21.007.316.007h.003c.172 0 .343-.006.513-.015l.497 1.325zm9.554-34.012C22.793 1.605 19.042.002 14.935.004 10.828.002 7.077 1.605 4.369 4.387 1.657 7.166-.003 11.119 0 15.74c.003 5.442 1.613 10.705 4.261 14.67 1.326 1.982 2.916 3.64 4.718 4.817 1.243.811 2.592 1.39 4.01 1.67l-.756 2.02a.808.808 0 0 0 .09.738.794.794 0 0 0 .653.345h4.122c.26 0 .505-.13.653-.345a.808.808 0 0 0 .09-.739l-.773-2.06c1.35-.293 2.635-.854 3.823-1.63 2.703-1.765 4.93-4.61 6.5-8.015 1.569-3.409 2.478-7.39 2.48-11.47.002-4.622-1.658-8.575-4.37-11.354z"/><path d="M5.322 13.518c-.488-.155-.764-.693-.615-1.203.562-1.932 1.517-3.554 2.725-4.844a10.65 10.65 0 0 1 3.997-2.668c.48-.18 1.01.08 1.183.58.173.5-.076 1.053-.556 1.233A8.792 8.792 0 0 0 8.75 8.82c-1.004 1.074-1.797 2.414-2.276 4.055a.93.93 0 0 1-.884.683.89.89 0 0 1-.269-.041"/></g></svg>