<svg width="43" height="56" xmlns="http://www.w3.org/2000/svg"><g fill="#EC008C" fill-rule="evenodd"><path d="M34.728 41.066c-1.716 2.523-3.743 4.58-5.942 5.989-2.203 1.41-4.56 2.178-7.023 2.18-2.462-.002-4.82-.77-7.022-2.18-3.3-2.11-6.209-5.691-8.267-10.093-2.061-4.4-3.274-9.605-3.272-14.907C3.205 16.232 5.3 11.422 8.646 8.04c3.351-3.377 7.967-5.332 13.117-5.334 5.15.002 9.766 1.957 13.117 5.334 3.347 3.382 5.441 8.192 5.445 14.015.004 7.069-2.16 13.967-5.597 19.011zM23.2 53.67h-2.587l.7-1.836c.15.004.3.009.45.009h.003c.244 0 .487-.009.729-.021l.705 1.848zM36.757 6.213C32.913 2.333 27.59.096 21.763.1 15.936.096 10.613 2.333 6.77 6.213 2.923 10.091.568 15.607.572 22.055c.004 7.593 2.289 14.937 6.046 20.468 1.881 2.765 4.137 5.08 6.694 6.72 1.763 1.133 3.678 1.94 5.691 2.331l-1.074 2.818c-.13.342-.083.728.127 1.03.21.3.558.482.927.482h5.849c.369 0 .717-.181.927-.482.21-.302.257-.688.126-1.03l-1.095-2.874c1.915-.41 3.739-1.192 5.424-2.274 3.835-2.464 6.995-6.433 9.224-11.185 2.225-4.755 3.516-10.31 3.517-16.004.004-6.448-2.351-11.964-6.198-15.842z"/><path d="M8.124 18.953c-.693-.215-1.084-.966-.874-1.677.798-2.696 2.153-4.96 3.867-6.759a15.132 15.132 0 0 1 5.672-3.722 1.302 1.302 0 0 1 1.678.809c.245.698-.108 1.468-.79 1.72A12.492 12.492 0 0 0 12.99 12.4c-1.425 1.499-2.55 3.369-3.23 5.658-.172.58-.692.954-1.254.954-.126 0-.254-.019-.381-.059"/></g></svg>