<svg width="40" height="40" xmlns="http://www.w3.org/2000/svg"><path d="M34.785 34.856a1.099 1.099 0 1 0 1.554 1.554 1.099 1.099 0 0 0-1.554-1.554m2.45 2.38a2.17 2.17 0 0 1-1.545.64c-.564 0-1.117-.211-1.547-.64L12.318 15.41a1.058 1.058 0 0 0-1.12-.244 6.778 6.778 0 0 1-2.346.419 6.709 6.709 0 0 1-4.759-1.97 6.702 6.702 0 0 1-1.97-4.758c0-.507.056-1.014.17-1.51l4 4c.197.199.472.312.751.312.28 0 .552-.113.75-.311l3.554-3.553c.197-.197.311-.47.311-.75s-.114-.554-.31-.751l-4.001-4a6.768 6.768 0 0 1 1.51-.17 6.7 6.7 0 0 1 4.758 1.97 6.701 6.701 0 0 1 1.97 4.757 6.77 6.77 0 0 1-.42 2.349c-.144.39-.05.823.245 1.118l21.823 21.824.007.007c.426.429.634.98.635 1.543a2.17 2.17 0 0 1-.642 1.544m1.504-4.594l-.01-.008-21.356-21.358a8.926 8.926 0 0 0 .337-2.425 8.822 8.822 0 0 0-2.593-6.258A8.827 8.827 0 0 0 8.858 0a8.85 8.85 0 0 0-3.913.909c-.306.15-.522.443-.579.777-.056.338.057.684.297.925l4.432 4.433-2.05 2.051L2.61 4.662a1.07 1.07 0 0 0-.923-.297c-.337.057-.63.274-.78.58A8.843 8.843 0 0 0 0 8.857a8.826 8.826 0 0 0 2.592 6.26 8.834 8.834 0 0 0 6.26 2.59 8.87 8.87 0 0 0 2.424-.336l21.365 21.367A4.31 4.31 0 0 0 35.69 40h.002a4.307 4.307 0 0 0 3.045-7.358" fill="#FFF" fill-rule="evenodd"/></svg>