<svg width="24" height="23" xmlns="http://www.w3.org/2000/svg"><path d="M12 18.584c1.28 0 2.456-.312 3.528-.936a7.044 7.044 0 0 0 2.52-2.52 6.887 6.887 0 0 0 .936-3.528c0-1.28-.312-2.456-.936-3.528a7.044 7.044 0 0 0-2.52-2.52A6.887 6.887 0 0 0 12 4.616c-1.28 0-2.456.312-3.528.936a7.044 7.044 0 0 0-2.52 2.52 6.887 6.887 0 0 0-.936 3.528c0 1.28.312 2.456.936 3.528a7.044 7.044 0 0 0 2.52 2.52 6.887 6.887 0 0 0 3.528.936zm8.952-7.968h2.064v1.968h-2.064a8.695 8.695 0 0 1-1.32 3.804 9.105 9.105 0 0 1-2.844 2.844 8.695 8.695 0 0 1-3.804 1.32v2.064h-1.968v-2.064a8.612 8.612 0 0 1-3.792-1.32 9.152 9.152 0 0 1-2.832-2.844 8.937 8.937 0 0 1-1.344-3.804H.984v-1.968h2.064a8.937 8.937 0 0 1 1.344-3.804 9.152 9.152 0 0 1 2.832-2.844 8.612 8.612 0 0 1 3.792-1.32V.584h1.968v2.064a8.695 8.695 0 0 1 3.804 1.32 9.105 9.105 0 0 1 2.844 2.844 8.695 8.695 0 0 1 1.32 3.804zm-8.952-3c.72 0 1.384.18 1.992.54.608.36 1.092.844 1.452 1.452.36.608.54 1.272.54 1.992s-.18 1.384-.54 1.992a4.073 4.073 0 0 1-1.452 1.452 3.84 3.84 0 0 1-1.992.54 3.84 3.84 0 0 1-1.992-.54 4.073 4.073 0 0 1-1.452-1.452 3.84 3.84 0 0 1-.54-1.992c0-.72.18-1.384.54-1.992a4.073 4.073 0 0 1 1.452-1.452A3.84 3.84 0 0 1 12 7.616z" fill="#FFF" fill-rule="evenodd"/></svg>