<?xml version="1.0" encoding="UTF-8"?>
<svg width="24px" height="23px" viewBox="0 0 24 23" version="1.1" xmlns="http://www.w3.org/2000/svg" xmlns:xlink="http://www.w3.org/1999/xlink">
    <!-- Generator: Sketch 50 (54983) - http://www.bohemiancoding.com/sketch -->
    <title>gps_fixed - material</title>
    <desc>Created with Sketch.</desc>
    <defs></defs>
    <g id="Page-1" stroke="none" stroke-width="1" fill="none" fill-rule="evenodd">
        <g id="Form--NoUpload" transform="translate(-303.000000, -212.000000)" fill="#FFFFFF">
            <path d="M315,230.584 C316.280006,230.584 317.455995,230.272003 318.528,229.648 C319.584005,229.023997 320.423997,228.184005 321.048,227.128 C321.672003,226.055995 321.984,224.880006 321.984,223.6 C321.984,222.319994 321.672003,221.144005 321.048,220.072 C320.423997,219.015995 319.584005,218.176003 318.528,217.552 C317.455995,216.927997 316.280006,216.616 315,216.616 C313.719994,216.616 312.544005,216.927997 311.472,217.552 C310.415995,218.176003 309.576003,219.015995 308.952,220.072 C308.327997,221.144005 308.016,222.319994 308.016,223.6 C308.016,224.880006 308.327997,226.055995 308.952,227.128 C309.576003,228.184005 310.415995,229.023997 311.472,229.648 C312.544005,230.272003 313.719994,230.584 315,230.584 Z M323.952,222.616 L326.016,222.616 L326.016,224.584 L323.952,224.584 C323.807999,225.960007 323.368004,227.227994 322.632,228.388 C321.895996,229.548006 320.948006,230.495996 319.788,231.232 C318.627994,231.968004 317.360007,232.407999 315.984,232.552 L315.984,234.616 L314.016,234.616 L314.016,232.552 C312.639993,232.407999 311.376006,231.968004 310.224,231.232 C309.071994,230.495996 308.128004,229.548006 307.392,228.388 C306.655996,227.227994 306.208001,225.960007 306.048,224.584 L303.984,224.584 L303.984,222.616 L306.048,222.616 C306.208001,221.239993 306.655996,219.972006 307.392,218.812 C308.128004,217.651994 309.071994,216.704004 310.224,215.968 C311.376006,215.231996 312.639993,214.792001 314.016,214.648 L314.016,212.584 L315.984,212.584 L315.984,214.648 C317.360007,214.792001 318.627994,215.231996 319.788,215.968 C320.948006,216.704004 321.895996,217.651994 322.632,218.812 C323.368004,219.972006 323.807999,221.239993 323.952,222.616 Z M315,219.616 C315.720004,219.616 316.383997,219.795998 316.992,220.156 C317.600003,220.516002 318.083998,220.999997 318.444,221.608 C318.804002,222.216003 318.984,222.879996 318.984,223.6 C318.984,224.320004 318.804002,224.983997 318.444,225.592 C318.083998,226.200003 317.600003,226.683998 316.992,227.044 C316.383997,227.404002 315.720004,227.584 315,227.584 C314.279996,227.584 313.616003,227.404002 313.008,227.044 C312.399997,226.683998 311.916002,226.200003 311.556,225.592 C311.195998,224.983997 311.016,224.320004 311.016,223.6 C311.016,222.879996 311.195998,222.216003 311.556,221.608 C311.916002,220.999997 312.399997,220.516002 313.008,220.156 C313.616003,219.795998 314.279996,219.616 315,219.616 Z" id="gps_fixed---material"></path>
        </g>
    </g>
</svg>