<svg width="55" height="32" xmlns="http://www.w3.org/2000/svg"><path d="M52.975 24.41l-.147 1.115-8.886-1.123-.052-.007.147-1.115 8.938 1.13zM44.988 7.666c3.805 3.777 6.158 8.992 6.158 14.76l-.002.182-7.692-.971a.812.812 0 0 0-.588.155.78.78 0 0 0-.303.517l-.25 1.898c-1.106-.13-7.32-.804-8.9-.951-1.588-.147-2.789-.242-3.393-.244-1.865-.005-9.458-.035-15.565-.052l-2.587-.006c.03-4.974 2.07-9.467 5.354-12.728a18.272 18.272 0 0 1 12.916-5.312h11.43a21.112 21.112 0 0 1 3.422 2.752zm-34.217 6.653V7.146c.002-1.185 1-2.162 2.21-2.164h5.616l.198-.126a21.003 21.003 0 0 1 11.341-3.299c3.045 0 5.936.643 8.546 1.8h-8.546a19.881 19.881 0 0 0-14.048 5.776c-3.567 3.54-5.782 8.426-5.812 13.818l-1.142-.002a20.68 20.68 0 0 1 1.578-8.489l.059-.14zm41.695 14.108c-.327-.04-13.73-1.663-14.786-1.777-2.537-.272-5.439-.727-8.297-.728-1.513 0-3.018.13-4.454.493-.178.045-1.685.502-2.247.687-4.802 1.574-8.909 3.351-13.465 3.341-1.6 0-3.266-.213-5.063-.73-.779-.224-1.516-.504-1.996-.788a1.99 1.99 0 0 1-.493-.378.417.417 0 0 1-.07-.102l-.005-.016c.001 0-.002-.002.012-.035.03-.096.32-.433 1.029-.803 1.668-.89 5.904-3.06 5.95-3.085l21.433.062c.46 0 1.685.092 3.246.237 2.916.272 7.099.732 10.457 1.138l8.922 1.127-.173 1.357zm2.19-4.758a.805.805 0 0 0-.022-.129c0-.002 0-.005-.002-.008a.774.774 0 0 0-.051-.134l-.01-.018a.73.73 0 0 0-.065-.102l-.01-.016-.008-.008a.813.813 0 0 0-.096-.1l-.016-.012c-.02-.016-.04-.033-.062-.048l-.04-.022a.81.81 0 0 0-.296-.104l-.01-.003-1.237-.156c.002-.127.005-.254.005-.382 0-6.187-2.527-11.797-6.615-15.854A22.62 22.62 0 0 0 30.136 0c-4.41 0-8.532 1.256-12.01 3.425h-5.145c-2.096.003-3.798 1.67-3.801 3.72v6.87a22.216 22.216 0 0 0-1.629 9.262c-1.892.972-3.794 1.94-5.68 2.947-.57.304-1.002.608-1.327.957-.322.344-.545.778-.544 1.248-.001.444.198.831.445 1.117.377.433.872.728 1.43.995.56.261 1.188.48 1.83.665 1.94.559 3.766.794 5.512.794 5.578-.011 10.248-2.347 15.646-3.951 1.386-.416 2.922-.571 4.52-.57 2.687-.002 5.533.438 8.123.72 2.322.25 6.213.718 9.519 1.124 3.306.405 6.024.747 6.03.748.21.026.42-.03.589-.157a.773.773 0 0 0 .301-.519l.71-5.561a.754.754 0 0 0 .004-.138l-.003-.027z" fill="#000" fill-rule="evenodd"/></svg>