<svg width="54" height="56" xmlns="http://www.w3.org/2000/svg"><path d="M38.634 47.544l7.873 3.84-2.352-8.08 1.53-.446 1.218 1.034-1.217-1.034-1.53.446a1.584 1.584 0 0 1 .315-1.482 23.352 23.352 0 0 0 5.58-15.18 23.382 23.382 0 0 0-6.862-16.58c-4.245-4.244-10.092-6.866-16.566-6.866-6.476 0-12.322 2.622-16.567 6.866a23.375 23.375 0 0 0-6.861 16.58c0 6.479 2.62 12.33 6.86 16.579 4.246 4.245 10.092 6.867 16.568 6.867a23.28 23.28 0 0 0 10.587-2.534 1.604 1.604 0 0 1 1.424-.01m9.715 8.295l-10.414-5.081a26.499 26.499 0 0 1-11.312 2.525C11.919 53.283.002 41.356 0 26.642.002 11.929 11.919.002 26.623 0c14.702.001 26.62 11.929 26.623 26.642a26.528 26.528 0 0 1-5.791 16.579l3.127 10.734a1.6 1.6 0 0 1-2.233 1.884" fill="#6EC81E" fill-rule="evenodd"/></svg>