<svg width="38" height="40" xmlns="http://www.w3.org/2000/svg"><path d="M27.495 33.96l5.604 2.743-1.674-5.772 1.09-.318.865.738-.866-.738-1.089.318a1.135 1.135 0 0 1 .224-1.058 16.716 16.716 0 0 0 3.972-10.843 16.732 16.732 0 0 0-4.883-11.843c-3.022-3.031-7.183-4.904-11.791-4.904-4.608 0-8.77 1.873-11.79 4.904A16.727 16.727 0 0 0 2.274 19.03c0 4.628 1.864 8.807 4.883 11.842 3.02 3.032 7.182 4.905 11.79 4.905 2.715 0 5.27-.654 7.535-1.81a1.138 1.138 0 0 1 1.013-.007m6.915 5.925l-7.412-3.63a18.802 18.802 0 0 1-8.051 1.805C8.482 38.059.001 29.54 0 19.03.001 8.52 8.482 0 18.947 0c10.464.001 18.946 8.52 18.948 19.03a18.992 18.992 0 0 1-4.122 11.842L36 38.539c.125.433-.015.901-.359 1.192a1.125 1.125 0 0 1-1.23.154" fill="#FFF" fill-rule="evenodd"/></svg>