<svg xmlns="http://www.w3.org/2000/svg" width="46.74" height="52.559"><path d="M20.612 52.486c.461-.143.79-.405 1.454-1.155l.461-.522.283.318.283.319-.316.306c-.354.341-.715.55-1.088.627-.121.025-.22.058-.22.073 0 .043.26.107.435.107.368 0 .894-.254 1.289-.623l.184-.172.251.231c.471.431 1.076.645 1.502.53.173-.048.213-.116.067-.116-.123 0-.532-.15-.739-.271a2.962 2.962 0 0 1-.647-.543l-.14-.158.273-.316.273-.317.152.175c.445.511.878.966 1.065 1.12.439.359.995.53 1.381.425.174-.047.214-.115.067-.115-.125 0-.533-.151-.755-.28-.226-.132-.636-.525-1.203-1.154l-.432-.48.092-.1.563-.629c.653-.728 1.053-1.098 1.363-1.26.283-.148.606-.254.77-.254.161 0 .127-.061-.06-.108-.408-.103-.877-.008-1.284.259-.222.145-.607.536-1.344 1.366-.184.206-.35.376-.37.378-.021.002-.16-.132-.308-.3l-.27-.303.382-.387c.21-.213.454-.437.54-.497.33-.23.776-.407 1.032-.408.158 0 .122-.062-.064-.108-.407-.103-.892-.005-1.289.26a4.193 4.193 0 0 0-.55.494l-.322.343-.325-.344a4.44 4.44 0 0 0-.548-.495c-.386-.264-.869-.361-1.277-.258-.187.047-.222.108-.061.108.164 0 .487.106.774.255.194.1.378.25.707.572.245.24.439.454.431.475a3.725 3.725 0 0 1-.279.336l-.265.298-.715-.795c-.774-.86-1.022-1.066-1.46-1.213a1.514 1.514 0 0 0-.818-.036c-.187.047-.221.108-.06.108.162 0 .485.106.774.254.292.15.863.696 1.603 1.533l.404.457-.507.56c-.279.308-.62.662-.756.788-.285.261-.669.468-.991.535-.122.025-.221.058-.221.074 0 .044.222.099.417.103.096.002.281-.03.412-.07zm2.479-1.672c-.14-.156-.256-.298-.256-.316 0-.036.516-.637.543-.633.01.002.143.145.294.318l.276.315-.272.3c-.149.165-.284.3-.3.3-.016 0-.145-.128-.285-.284zm-5.8 1.26c.12-.059.313-.22.533-.448.227-.235.35-.337.36-.301.01.03.036.124.059.208.105.388.521.524.948.31.226-.114.437-.364.604-.718l.156-.329.3.03c.51.05.692.039.752-.044.07-.095.067-.12-.019-.205-.045-.046-.238-.11-.524-.177l-.453-.105v-.237c0-.13-.026-.354-.059-.498-.175-.77-.834-1.037-1.204-.487-.047.07-.085.113-.085.097s-.027-.2-.06-.408c-.102-.645-.241-.904-.586-1.093-.255-.14-.6-.154-.765-.032-.154.114-.271.303-.34.549-.032.118-.07.206-.081.194-.012-.012-.032-.26-.045-.553-.032-.76-.165-1.06-.567-1.283-.177-.098-.231-.109-.534-.109-.28 0-.365.015-.499.087-.3.16-.392.502-.308 1.149.016.124.024.23.018.238-.043.052-.178-.075-.33-.312-.333-.517-.634-.71-1.11-.712a.917.917 0 0 0-.531.122c-.574.283-.962.978-.856 1.536.08.423.314.719.712.901.171.079.285.1.657.118.41.02.618.07.618.144 0 .016-.121.087-.269.158-.53.255-.714.457-.714.786 0 .32.305.71.72.923.184.094.246.106.563.106.328 0 .377-.01.61-.125.148-.073.367-.23.53-.38.236-.22.508-.413.508-.362 0 .008-.043.127-.094.264-.202.536-.063.856.455 1.052.227.086.7.059.93-.054zm-.796-.49c-.132-.053-.137-.128-.031-.413.113-.306.121-.442.037-.619-.14-.297-.558-.383-.895-.186a3.666 3.666 0 0 0-.457.36c-.344.314-.53.41-.792.41a.767.767 0 0 1-.601-.283c-.186-.211-.156-.266.267-.486.427-.223.54-.319.597-.51.037-.125.03-.163-.06-.349-.181-.37-.468-.507-1.06-.507-.528 0-.778-.14-.872-.488-.114-.424.312-1.027.758-1.074.273-.028.458.098.714.487.271.412.464.55.768.55a.92.92 0 0 0 .32-.056c.242-.114.298-.323.24-.902-.053-.527-.038-.555.278-.532.144.01.242.04.296.088.166.15.198.272.223.863.02.496.035.59.115.748.108.217.233.315.43.34a.536.536 0 0 0 .476-.216c.04-.054.119-.231.176-.393.116-.33.179-.373.35-.238.152.12.207.255.272.68.08.514.187.75.386.852.248.127.4.105.58-.082.085-.088.174-.193.198-.234.04-.069.05-.06.127.112.093.206.15.693.08.693-.1 0-.89-.163-1.28-.265-.887-.232-2.094-.633-3.216-1.07-.646-.251-.734-.272-.768-.182-.044.113.029.168.557.427 1.562.767 3.476 1.438 4.451 1.56.117.014.212.033.212.043 0 .009-.045.107-.099.217-.106.217-.283.408-.414.448-.072.022-.086.007-.108-.118-.074-.403-.214-.544-.543-.541-.246.002-.338.06-.728.455-.185.189-.383.367-.438.396-.112.06-.414.068-.546.015zm13.935.526c.309-.116.516-.37.514-.63 0-.055-.043-.219-.094-.363a2.871 2.871 0 0 1-.092-.292c0-.058.173.065.492.346.178.157.422.336.543.397.2.1.253.11.594.11.333 0 .395-.01.562-.098.588-.311.874-.86.646-1.239-.103-.17-.265-.294-.609-.467-.322-.163-.308-.15-.231-.227.05-.051.16-.069.54-.086.552-.024.793-.108 1.048-.363.247-.246.329-.46.329-.854 0-.309-.011-.36-.129-.599-.16-.324-.452-.624-.742-.76-.174-.08-.27-.1-.497-.1-.463 0-.789.198-1.078.655-.162.256-.268.375-.335.375-.042 0-.046-.05-.022-.272.065-.576.012-.853-.195-1.036-.217-.19-.609-.246-.968-.138-.483.146-.732.576-.738 1.274a4.54 4.54 0 0 1-.03.509l-.026.168-.083-.243c-.115-.339-.206-.472-.38-.56-.179-.092-.342-.097-.572-.019-.409.14-.624.48-.728 1.155-.034.218-.073.398-.086.398-.013 0-.054-.052-.092-.116a.52.52 0 0 0-.67-.207c-.303.13-.494.5-.56 1.085l-.044.397-.208.04c-.322.064-.611.15-.704.209-.11.071-.107.186.009.261.082.054.143.056.546.017.25-.024.458-.038.463-.032.004.007.044.1.087.209.091.224.302.554.429.672.26.241.72.332.943.187a.7.7 0 0 0 .272-.447c.013-.077.035-.14.049-.14.014 0 .149.136.3.302.422.466.655.592 1.096.595.163 0 .321-.025.451-.073zm-.749-.549c-.066-.033-.25-.202-.408-.375-.33-.364-.505-.47-.772-.468-.303.002-.444.145-.497.503-.015.097-.046.177-.07.177-.064 0-.234-.122-.315-.226-.083-.106-.233-.39-.233-.442 0-.02.097-.047.216-.061.91-.112 2.956-.83 4.372-1.537.534-.267.6-.31.6-.393 0-.056-.024-.098-.06-.105-.034-.006-.396.118-.806.275-1.06.408-2.394.844-3.18 1.04-.714.177-1.208.272-1.243.237-.034-.035.06-.582.121-.7.074-.143.106-.14.207.024.205.331.583.368.849.083.113-.121.18-.325.234-.723.062-.447.146-.637.318-.719.167-.08.208-.046.302.25.105.332.203.48.374.562.195.095.284.094.473-.002.247-.126.327-.35.354-.994.032-.79.141-.99.54-.988.3 0 .303.012.248.73-.033.44.018.591.239.702a.886.886 0 0 0 .588.026c.148-.056.369-.28.52-.529.231-.378.459-.517.758-.463.321.059.677.46.71.803.023.24-.005.344-.13.493-.162.192-.352.258-.744.259a2.3 2.3 0 0 0-.535.059c-.445.132-.719.587-.55.914.06.116.182.201.614.432.346.185.381.234.275.382a.836.836 0 0 1-.962.295c-.096-.037-.302-.187-.49-.356-.38-.343-.603-.466-.84-.466-.486.002-.687.406-.469.943.052.127.094.248.094.268 0 .135-.484.198-.702.09zM10.904 49.32c.327-.166.498-.49.485-.919-.007-.239-.005-.246.148-.398.175-.174.2-.306.08-.426-.099-.099-.198-.094-.325.015l-.104.09-.144-.15a.89.89 0 0 0-.664-.29c-.252-.002-.441.09-.522.254-.032.064-.074.118-.095.118-.02 0-.142.05-.27.11-.432.205-.689.532-.746.95-.022.159-.018.166.19.356.145.132.273.212.404.25.196.06.647.072.815.024.063-.018.13-.005.206.04.155.094.325.086.542-.024zm-1.398-.468c-.306-.098-.33-.296-.065-.534.191-.172.389-.254.613-.254.12 0 .137.015.194.158.035.086.072.234.084.328.02.168.018.172-.125.24-.165.08-.542.113-.7.062zm1.292-.263a1.546 1.546 0 0 0-.197-.707c-.09-.157-.074-.18.056-.077.21.166.325.536.25.812-.062.233-.104.222-.11-.028zm25.609.764c.073-.051.12-.054.328-.017.268.046.612.005.82-.099.173-.087.469-.39.469-.482 0-.15-.137-.495-.256-.645a1.583 1.583 0 0 0-.647-.441.448.448 0 0 1-.24-.178c-.221-.354-.815-.32-1.192.07l-.138.141-.086-.081c-.166-.155-.4-.072-.4.142 0 .073.045.148.15.25.148.144.15.148.15.426 0 .438.19.77.524.914.172.075.412.075.518 0zm.194-.531c-.152-.06-.17-.08-.18-.2-.006-.073.025-.23.07-.35l.081-.217.203.02c.35.037.742.334.717.543-.028.235-.524.348-.891.204zm-.747-.172c-.094-.278.033-.686.264-.851.065-.046.111-.069.102-.05-.009.019-.06.127-.116.24-.054.114-.122.341-.15.506l-.05.3zM12.09 47.074a.603.603 0 0 0 .145-.205c.057-.127.09-.155.203-.174.27-.043.474-.142.647-.313.305-.302.369-.779.13-.967-.072-.056-.09-.113-.106-.33-.03-.411-.251-.797-.56-.975-.26-.15-.248-.148-.463-.04-.371.188-.616.565-.678 1.041a.563.563 0 0 1-.132.323c-.09.103-.107.157-.107.323 0 .354.172.63.493.793.177.09.181.096.126.175-.169.241.067.514.302.35zm-.154-.896a.645.645 0 0 1-.179-.126c-.066-.074-.065-.075.13-.024.236.061.557.066.755.01.195-.053.208-.023.037.083-.174.107-.568.138-.743.057zm.17-.576c-.213-.026-.235-.065-.22-.386.01-.239.031-.315.127-.47.098-.16.132-.185.25-.195.12-.01.147.004.231.128.123.18.19.481.157.702-.014.094-.038.179-.052.187-.05.028-.364.05-.494.034zm22.848 1.451c.088-.089.095-.183.02-.283-.08-.105-.073-.12.083-.2.282-.145.53-.51.533-.782 0-.162-.087-.367-.179-.416-.056-.03-.077-.092-.092-.275a1.47 1.47 0 0 0-.32-.78 1.4 1.4 0 0 0-.324-.24l-.21-.112-.215.117c-.362.198-.586.567-.634 1.047-.016.161-.046.244-.11.31-.111.112-.14.222-.116.438.042.375.393.71.839.803.179.037.21.057.275.185.04.078.1.17.133.203.082.082.226.075.317-.015zm-.806-.876a.528.528 0 0 1-.164-.11c-.046-.057-.04-.06.075-.035.168.038.652.036.833-.002.186-.04.152.029-.065.127-.18.082-.514.092-.679.02zm.15-.574c-.176-.027-.206-.074-.206-.324 0-.292.052-.478.173-.622.193-.229.437-.094.557.307.086.29.062.574-.05.606-.119.033-.363.05-.474.033zm-24.59 1.295c.113-.053.296-.165.407-.248l.2-.153.118.072c.153.093.31.093.36 0 .053-.1.054-.095-.08-.247l-.117-.134.153-.326c.183-.39.232-.564.231-.813-.001-.504-.387-.813-.8-.64-.168.07-.17.11.017-.409.203-.567.164-.92-.14-1.256-.322-.358-.661-.343-1.085.048-.197.181-.191.156.09-.391.3-.58.33-.975.107-1.355-.159-.272-.567-.51-.872-.51-.182 0-.408.127-.533.3a2.67 2.67 0 0 0-.229.448c-.066.165-.135.3-.152.3-.07 0-.12-.178-.147-.524-.045-.566-.224-.876-.619-1.07-.65-.317-1.565.01-1.893.675-.305.62-.019 1.336.681 1.704.259.135.407.252.407.32 0 .03-.131.043-.44.04-.386-.002-.459.008-.595.08-.294.158-.401.468-.3.866.233.907.867 1.249 1.865 1.004a3.72 3.72 0 0 1 .505-.098c.102 0 .098.008-.125.215-.36.334-.422.558-.25.901.12.241.337.432.61.536.283.106.652.08 1.1-.076.18-.064.342-.115.361-.115.019 0 .008.081-.024.181-.103.323.008.584.306.723.218.102.607.081.883-.048zm-.674-.46c0-.01.018-.064.041-.122.136-.342.094-.562-.137-.72-.214-.147-.421-.144-.9.011-.46.15-.634.165-.826.074-.146-.07-.286-.244-.256-.321a1 1 0 0 1 .208-.2c.243-.191.346-.359.346-.56 0-.329-.28-.578-.649-.58-.093 0-.342.041-.555.093-.618.15-.852.119-1.083-.144-.105-.12-.235-.437-.235-.573 0-.095.146-.123.585-.115.385.006.462-.002.566-.066.314-.19.313-.698 0-1.025a1.869 1.869 0 0 0-.364-.258c-.445-.245-.608-.453-.605-.772.003-.371.374-.691.84-.725.446-.032.64.177.674.73.012.18.049.405.083.502a.816.816 0 0 0 .509.48c.308.083.496-.035.67-.42.24-.534.274-.598.33-.62.1-.038.373.136.442.282.087.184.034.396-.234.93-.253.506-.29.716-.163.941a.483.483 0 0 0 .46.272c.174 0 .234-.035.607-.352.167-.141.174-.143.246-.078.04.037.093.13.116.206.037.124.025.185-.113.586-.175.51-.196.749-.08.938.154.253.394.312.676.165.083-.044.161-.079.174-.079.058 0-.023.422-.122.634l-.11.238-.562-.525C8.407 44.14 7.53 43.146 6.3 41.517c-.2-.265-.317-.334-.363-.213-.04.104.02.227.39.788 1.018 1.546 2 2.716 3.09 3.68.223.196.399.374.392.395-.03.086-.459.286-.617.286-.088 0-.16-.007-.16-.016zm28.908.498a.655.655 0 0 0 .236-.197c.08-.13.095-.406.033-.569-.02-.056-.03-.109-.022-.118.01-.009.203.044.431.118.463.15.746.17 1.018.077.53-.184.857-.747.658-1.133-.055-.106-.222-.28-.436-.454l-.093-.077h.118c.066-.002.302.042.525.096.95.229 1.54-.046 1.809-.843.258-.767-.11-1.186-.982-1.113-.238.02-.29.015-.29-.03 0-.071.193-.23.422-.346.264-.134.533-.4.654-.646.089-.18.103-.256.103-.529 0-.274-.015-.345-.104-.516-.344-.656-1.268-.986-1.88-.672-.41.209-.6.544-.65 1.146-.032.37-.08.51-.152.434a2.218 2.218 0 0 1-.148-.313c-.156-.375-.284-.549-.471-.64-.207-.1-.409-.095-.642.014-.518.24-.734.67-.618 1.228.024.116.136.391.25.612.114.22.2.407.191.416-.008.008-.092-.053-.187-.136-.2-.176-.385-.262-.565-.262-.193 0-.462.201-.601.45-.104.185-.115.236-.112.505.003.247.028.365.14.665.075.201.123.365.108.364a.499.499 0 0 1-.12-.055c-.238-.135-.577-.023-.706.233-.164.326-.13.66.122 1.194l.16.34-.105.128a.48.48 0 0 0-.108.186c-.002.154.208.195.389.076l.109-.072.19.143c.493.366.963.471 1.326.296zm-.729-.577c-.36-.18-.363-.172.145-.617 1.035-.908 1.99-2.04 2.98-3.531.465-.7.528-.824.459-.908-.026-.03-.069-.056-.095-.056-.027 0-.26.274-.517.609-1.21 1.574-2.069 2.522-3.274 3.617l-.343.311-.073-.144c-.107-.21-.202-.56-.174-.646.023-.075.024-.075.179.004.31.159.558.088.705-.2.103-.202.082-.428-.078-.835a2.474 2.474 0 0 1-.139-.49c-.02-.175-.011-.202.094-.32l.114-.127.162.156c.089.086.227.2.307.253a.51.51 0 0 0 .776-.222c.101-.228.075-.348-.204-.936-.201-.424-.23-.515-.23-.706 0-.204.009-.227.125-.325.165-.138.295-.17.38-.093.036.033.128.212.205.398.077.185.181.386.231.445a.474.474 0 0 0 .515.151c.385-.114.543-.369.589-.949.03-.394.089-.542.264-.673.237-.176.732-.1 1.016.156.438.395.3.913-.325 1.229-.437.22-.622.468-.622.83 0 .425.171.551.73.54.206-.004.43.001.496.012.113.017.122.03.122.158 0 .156-.14.48-.249.577a.857.857 0 0 1-.496.18c-.081 0-.33-.045-.552-.098-.526-.127-.777-.115-.978.047a.58.58 0 0 0-.218.556c.022.116.082.199.286.394.143.136.26.272.26.303 0 .063-.162.226-.288.291-.142.073-.374.046-.794-.09-.462-.148-.596-.158-.819-.057-.274.125-.372.38-.253.663a.74.74 0 0 1 .056.186c0 .085-.266.061-.475-.043zM3.658 40.822c.22-.103.444-.338.544-.57.058-.135.09-.166.167-.166.17 0 .351-.099.378-.206.054-.214-.12-.365-.33-.285-.093.036-.1.03-.122-.103-.036-.216-.226-.517-.398-.63-.206-.137-.536-.165-.669-.058-.076.061-.112.067-.224.037-.2-.056-.63-.015-.85.081-.183.08-.538.404-.538.493 0 .1.135.443.228.58.157.232.489.457.765.52a.325.325 0 0 1 .187.144c.159.253.523.321.862.163zm-.2-.42c.204-.434.253-.604.256-.897l.003-.187.06.11c.139.258.02.754-.221.926-.063.045-.108.066-.099.047zm-.887-.404c-.504-.235-.542-.602-.073-.699.213-.044.396-.024.63.067.141.056.144.06.12.21-.013.085-.05.234-.081.332l-.059.178h-.174a.967.967 0 0 1-.363-.088zm41.202.834a.545.545 0 0 0 .187-.173c.042-.067.093-.121.114-.122.021 0 .156-.059.3-.128.36-.175.57-.4.674-.722.045-.14.074-.284.064-.32-.01-.038-.107-.15-.215-.249-.265-.242-.505-.317-.966-.303-.265.009-.378-.004-.489-.054-.329-.148-.791.132-.94.571a1.085 1.085 0 0 0-.058.233c0 .056-.017.06-.13.025-.104-.032-.146-.028-.224.023a.24.24 0 0 0-.066.312c.037.058.281.161.383.161.055 0 .097.046.148.166.124.29.384.53.675.625.13.042.41.02.543-.045zm-.652-.567c-.213-.218-.283-.68-.132-.878.046-.062.052-.047.053.14.001.233.084.553.19.737.09.155.04.156-.11 0zm.471-.325a1.69 1.69 0 0 1-.083-.335l-.025-.188.145-.06c.213-.09.436-.11.64-.06.224.057.31.133.31.276 0 .227-.44.513-.79.513-.126 0-.144-.013-.197-.146zm-30.903-.153c.426-.21.652-.642.65-1.25 0-.945-.495-1.446-1.384-1.403-.542.026-.868.238-1.08.702-.137.3-.16.865-.05 1.226.183.604.621.892 1.31.86.256-.013.354-.036.554-.135zm-.907-.351c-.244-.111-.39-.443-.39-.89 0-.402.063-.622.227-.798.142-.153.143-.153.426-.153.273 0 .287.005.413.131.353.355.314 1.389-.062 1.662-.13.094-.456.119-.614.048zm4.015.39c.331-.146.537-.423.539-.725v-.142l-.307.011-.308.011-.023.112c-.071.348-.453.51-.704.3-.185-.156-.25-.385-.249-.88 0-.358.014-.46.08-.603.11-.24.22-.334.397-.334.261 0 .478.186.478.41 0 .072.022.077.323.077h.323l-.019-.17a.816.816 0 0 0-.453-.632c-.284-.146-.787-.182-1.063-.077-.246.094-.468.314-.595.59-.103.222-.108.259-.108.758 0 .519.002.529.123.776.143.29.357.493.606.573.241.078.722.05.96-.055zm10.557-.018c.254-.124.48-.374.588-.653.11-.282.121-.902.02-1.19-.207-.6-.621-.863-1.308-.83-.279.013-.384.035-.536.113-.503.26-.76.862-.658 1.546.115.772.586 1.163 1.362 1.129.26-.012.37-.036.532-.115zm-.861-.372a.73.73 0 0 1-.357-.447c-.068-.254-.03-.914.063-1.094.114-.221.28-.319.54-.319.379 0 .57.206.638.69.067.47-.061.979-.284 1.124-.134.088-.455.112-.6.046zm7.39.346c.273-.137.393-.275.462-.532.124-.459-.145-.778-.792-.943a90.23 90.23 0 0 1-.374-.095c-.188-.05-.298-.164-.297-.31.002-.212.15-.326.423-.326.2 0 .322.086.383.267l.043.127h.555l-.009-.145a.742.742 0 0 0-.359-.563c-.153-.094-.228-.114-.495-.128-.7-.037-1.179.308-1.179.85 0 .429.274.648 1.021.817.346.078.447.162.433.359-.017.22-.149.308-.467.308-.22 0-.253-.01-.333-.103a.594.594 0 0 1-.113-.234L31.76 39h-.591l.001.159c.002.31.2.582.505.694.198.073.256.08.609.068.306-.01.375-.026.6-.139zM17.797 39.3V38.7h.972l.01.59.011.59h.6v-2.697l-.31-.01-.309-.012v1.052h-.974v-1.049h-.599V39.9h.6zm4.57-.081v-.681l.46.671.458.672.365.01c.201.007.365-.002.365-.02 0-.016-.235-.357-.524-.757-.449-.623-.516-.735-.474-.785.374-.448.923-1.128.923-1.143 0-.011-.156-.02-.346-.02h-.347l-.43.562-.431.562-.01-.562-.01-.563h-.598V39.9h.6zm6.04-.41l.01-1.09.511 1.081.512 1.081.415.01.415.011v-2.737h-.56l-.01 1.014-.01 1.014-.487-1.013-.487-1.013h-.44l-.44-.002V39.9h.56l.01-1.09zm7.024-.042l.01-1.115h.785v-.487h-2.21v.487h.787v1.1c0 .603.012 1.11.026 1.124.015.015.154.022.31.016l.282-.01.01-1.115zm-29.853.793c.2-.113.206-.114.35-.056.239.095.618.077.854-.04.284-.142.42-.363.412-.67a1.27 1.27 0 0 1 .096-.505c.163-.446.099-.866-.182-1.19-.098-.112-.423-.115-.715-.006-.234.088-.565.37-.676.575-.054.1-.097.134-.168.134-.239 0-.427.296-.43.674 0 .209.017.276.124.463.068.12.118.223.112.227l-.117.073c-.089.056-.103.087-.094.203.009.103.036.15.105.185.12.06.094.066.33-.067zm.514-.492a.94.94 0 0 1-.434-.343c-.122-.2-.08-.228.099-.064.187.173.581.377.729.378.074 0 .082.008.037.037-.072.046-.286.042-.43-.008zm.288-.554c-.242-.11-.381-.221-.381-.304 0-.258.435-.707.685-.707.301 0 .304.57.004.962-.051.068-.106.123-.12.123-.014 0-.1-.034-.188-.074zm35.171 1.062c.123-.111.081-.285-.089-.373-.101-.053-.106-.063-.054-.121.193-.213.271-.691.158-.963-.072-.17-.226-.31-.374-.338-.087-.016-.14-.058-.191-.154-.086-.159-.355-.403-.561-.509-.179-.092-.64-.133-.761-.068-.044.023-.133.152-.198.286-.11.229-.117.264-.101.57.013.255.039.374.118.538.084.177.094.228.06.316-.133.351.332.803.829.803.117 0 .295-.027.396-.06.179-.057.186-.057.35.038.196.111.322.122.418.035zm-1.298-.5c-.075-.032-.075-.032 0-.035.126-.005.552-.224.74-.382.19-.16.207-.16.124-.003-.164.314-.608.53-.864.42zm-.207-.63c-.184-.223-.28-.656-.186-.833.07-.129.168-.155.335-.088.183.073.466.377.529.567.044.134.042.14-.095.259a1.105 1.105 0 0 1-.304.177l-.165.056zm-35.494.005c.063-.018.068-.047.05-.251l-.022-.232.175-.11c.28-.175.609-.506.705-.711.11-.232.115-.481.016-.644-.083-.136-.176-.194-.41-.254l-.164-.042.27-.233c.473-.408.615-.638.615-1 0-.601-.386-.877-1.006-.717l-.224.058.112-.092c.062-.051.224-.16.36-.24.842-.503 1.02-1.217.458-1.838-.335-.371-.648-.347-1.238.097-.149.112-.28.204-.29.204-.058 0-.003-.187.139-.478.136-.281.16-.368.172-.614.011-.247 0-.317-.087-.51-.275-.612-1.034-.905-1.764-.68-.21.065-.29.116-.466.29-.254.256-.337.465-.336.847.001.294.09.557.296.878.135.21.194.454.11.454a.442.442 0 0 1-.163-.078c-.241-.166-.636-.334-.786-.334-.324 0-.57.245-.679.674-.161.64.122 1.267.699 1.548.112.054.353.142.536.194.183.053.365.113.404.134.088.048.056.11-.057.11-.167 0-.477.117-.604.23-.406.356-.147 1.216.46 1.526.08.04.329.112.554.158.225.046.416.09.425.097.01.007-.035.067-.098.134-.153.161-.199.258-.199.42 0 .285.174.512.506.66.202.091.655.118.997.06.168-.029.174-.027.22.085.042.1.039.125-.023.194l-.07.078.168-.026c.093-.014.2-.035.24-.046zm-1.274-.837c-.221-.068-.229-.129-.039-.313.219-.213.253-.364.138-.603-.112-.23-.298-.333-.787-.43-.457-.091-.624-.167-.739-.337-.095-.14-.148-.365-.097-.416.019-.02.134-.053.255-.076.487-.09.656-.238.656-.574 0-.388-.253-.6-.936-.788-.447-.122-.696-.311-.787-.597-.08-.251.015-.697.149-.697.034 0 .162.06.284.135.398.24.57.315.733.315.133 0 .177-.022.294-.145.263-.276.288-.661.07-1.05-.277-.493-.294-.537-.294-.754 0-.266.1-.432.337-.554.226-.117.62-.101.864.034.376.208.433.523.184 1.024-.19.383-.224.619-.12.852.097.22.301.378.487.377.198-.002.284-.044.658-.324.182-.136.355-.247.384-.247.096 0 .277.298.277.456 0 .19-.211.425-.578.642-.354.21-.638.49-.696.685-.04.134-.036.175.03.324a.647.647 0 0 0 .181.24c.129.085.425.09.753.014.129-.03.245-.042.258-.029a.433.433 0 0 1 .028.174c.005.188-.064.284-.447.616-.364.316-.468.458-.492.672-.038.336.168.55.529.55.128 0 .172.015.172.057 0 .076-.241.338-.434.47l-.157.108-.19-.532a12.756 12.756 0 0 1-.47-1.544c-.213-.853-.434-2.04-.606-3.259-.079-.56-.102-.627-.212-.611-.079.011-.085.033-.097.33-.024.63.155 2.237.37 3.315.143.716.316 1.328.555 1.965.104.277.182.511.174.52-.035.035-.532.039-.642.005zm39.195.694l.102-.168.169.028c.092.015.314.027.493.026.283-.002.351-.016.541-.113.374-.191.552-.561.406-.843a1.024 1.024 0 0 0-.176-.231c-.13-.12-.144-.112.357-.212.445-.09.669-.193.876-.406.3-.308.413-.896.227-1.175-.102-.153-.351-.287-.598-.32-.099-.012-.189-.037-.2-.054-.028-.046.153-.128.485-.218.56-.153.91-.4 1.103-.777.26-.51.116-1.303-.28-1.535-.288-.169-.575-.097-1.17.292l-.128.083.02-.166c.012-.1.081-.271.175-.429.274-.463.334-.846.19-1.228a1.115 1.115 0 0 0-.59-.634c-.23-.113-.28-.123-.607-.123-.718 0-1.201.321-1.375.915-.079.27-.03.578.15.952.161.335.175.377.142.43-.018.029-.124-.03-.313-.176-.314-.24-.526-.342-.712-.341-.185.001-.412.122-.546.29-.375.475-.373 1 .008 1.422.134.149.178.181.69.515.15.098.268.184.26.19a.837.837 0 0 1-.217-.04c-.506-.135-.822-.001-.957.405-.146.439.014.823.524 1.262l.326.281-.18.041a1.087 1.087 0 0 0-.26.09c-.217.137-.275.481-.133.8.096.213.437.557.712.717.124.073.187.133.177.169-.06.215-.06.329-.001.387.107.108.201.075.31-.106zm.43-.68c-.047-.01-.085-.028-.085-.04 0-.01.093-.269.205-.572.436-1.175.705-2.522.863-4.327.06-.677.07-1.061.033-1.158-.027-.07-.14-.078-.192-.012-.021.026-.075.3-.12.609-.3 2.066-.548 3.206-.983 4.502l-.267.795-.11-.064c-.158-.092-.463-.4-.487-.492-.02-.072-.005-.078.176-.078.382 0 .604-.28.506-.643-.044-.165-.13-.261-.662-.747-.237-.216-.311-.377-.255-.555.03-.093.111-.098.394-.022.278.075.425.07.596-.016.271-.139.345-.52.153-.79-.088-.123-.35-.324-.745-.572-.432-.271-.534-.54-.318-.846.06-.084.13-.153.156-.153.057-.001.25.124.545.353.3.233.467.274.684.169a.591.591 0 0 0 .267-.253c.15-.255.134-.489-.06-.892-.18-.376-.213-.528-.155-.705.181-.548 1.231-.635 1.475-.122.13.274.082.47-.254 1.049a.935.935 0 0 0-.048.861c.194.425.48.436 1.092.045.362-.232.443-.213.505.116.055.287-.012.526-.199.711-.155.154-.27.207-.753.35-.567.166-.842.44-.795.793.04.298.23.444.677.522l.249.044v.129c0 .15-.07.299-.193.41-.137.125-.216.154-.628.237-.46.092-.613.16-.739.325-.187.245-.153.506.096.743.137.13.143.173.032.242-.085.053-.503.088-.656.054zm-15.608-2.244c.407-.112.653-.412.653-.798 0-.428-.261-.633-1.035-.813-.295-.068-.373-.113-.43-.25a.234.234 0 0 1 0-.207c.13-.31.674-.29.777.029l.042.131.29.011.291.011-.019-.17c-.047-.415-.408-.677-.927-.674-.155 0-.35.022-.433.046-.654.192-.913.918-.462 1.298.162.137.31.2.72.306.182.047.371.112.42.144.183.12.15.391-.059.497a.89.89 0 0 1-.306.047c-.267.001-.402-.098-.438-.32l-.024-.147-.314-.011-.314-.011.023.187a.963.963 0 0 0 .208.504c.22.25.81.335 1.337.19zM12.65 34.088c.267-.724.49-1.332.498-1.35.007-.02-.123-.03-.297-.023l-.31.01-.34 1.026-.339 1.025-.337-1.033-.338-1.034h-.327c-.18-.001-.328.007-.328.018 0 .016.834 2.292.96 2.62.017.045.088.057.347.057h.325zm3.156 1.082l-.011-.234-.628-.01-.627-.01v-.673H15.662v-.487H14.54v-.561H15.738v-.488h-1.799v2.697H15.816zm2.18-.87v-1.103l.384-.011.384-.01.01-.235.012-.234h-2.217l.01.234.012.234.384.011.384.01v2.208h.637zm3.438.87l-.011-.234-.627-.01-.628-.01v-.673h1.124v-.487h-1.124v-.561H21.356v-.488h-1.798v2.697h1.876zm1.627-.823l.01-1.057.502 1.057.503 1.057h.849v-2.697h-.56l-.01 1.023-.01 1.022-.49-1.013-.49-1.013-.456-.01-.456-.011v2.699h.599l.009-1.057zm6.367.412l.01-.644.431.63c.237.347.45.638.471.646.023.009.195.011.383.005l.342-.01-.525-.727c-.289-.4-.517-.745-.507-.768.009-.023.22-.29.47-.592.249-.303.453-.56.453-.571 0-.012-.156-.02-.347-.02l-.346.001-.412.541-.412.542-.01-.543-.011-.542h-.635v2.697h.635zm2.733.373l.095-.271.523-.01.523-.01.088.281.088.282h.312c.172 0 .311-.004.31-.01 0-.005-.209-.607-.464-1.338l-.463-1.33h-.727l-.482 1.33c-.265.73-.482 1.333-.483 1.339 0 .005.13.009.292.009h.293zm.436-1.282c.096-.278.184-.506.195-.506.017 0 .228.617.317.927.024.083.02.084-.332.084h-.356zm2.779 1.054v-.5l.338-.024c.4-.029.66-.127.821-.31.278-.316.243-.885-.07-1.148-.2-.169-.436-.215-1.096-.215h-.593v2.697h.6zm0-1.35v-.36h.258c.347 0 .435.067.435.333 0 .273-.084.345-.428.37l-.265.019zm7.196-3.4c.1-.042.249-.151.332-.242.147-.159.16-.164.376-.164.174 0 .24-.017.299-.075.151-.151.034-.374-.197-.374h-.122l.013-.21a.929.929 0 0 0-.229-.677c-.163-.185-.294-.241-.543-.232a.91.91 0 0 1-.45-.095 1.178 1.178 0 0 0-1.01.01 1.238 1.238 0 0 0-.27.17c-.077.095-.034.602.07.803.101.198.341.464.513.57.084.052.127.107.127.164 0 .17.227.365.506.437.153.04.369.009.585-.085zm-.223-.526c.157-.169.403-.626.409-.756.002-.06.011-.052.038.033.077.253-.14.681-.418.825-.175.09-.182.064-.029-.102zm-.625-.317c-.303-.159-.59-.567-.506-.723.12-.223.561-.195.907.056.176.128.176.13.132.258-.068.192-.278.472-.354.47a.538.538 0 0 1-.179-.06zm-36.736.85c.163-.073.308-.257.312-.394.001-.047.067-.117.177-.188.208-.133.435-.421.513-.652.077-.225.076-.616-.002-.694-.089-.088-.426-.238-.597-.266-.2-.032-.553.036-.791.153-.158.077-.21.087-.294.055-.153-.058-.373.017-.541.185a.963.963 0 0 0-.259.734l.013.205h-.139c-.228 0-.332.221-.177.377.063.063.117.076.294.068.21-.008.22-.004.356.145.293.325.769.439 1.135.272zm-.552-.417c-.288-.115-.532-.561-.457-.835l.03-.109.05.165c.076.256.182.44.367.639.174.185.175.205.01.14zm.284-.501a1.765 1.765 0 0 1-.17-.29c-.068-.15-.068-.163-.009-.229.18-.199.625-.338.878-.274.118.03.175.16.135.31-.043.162-.301.443-.493.535-.212.103-.224.1-.34-.052zm13.903.78c.184-.022.197-.03.197-.126 0-.095-.014-.104-.195-.128-.518-.068-.83-.263-1.562-.975-.522-.508-3.188-3.432-3.188-3.497 0-.06 2.032-2.105 2.323-2.338.536-.43 1.052-.69 1.548-.784.237-.045.25-.053.25-.152v-.103h-3.072v.104c0 .098.015.108.219.15.407.085.487.3.274.732-.166.337-.543.788-1.616 1.934-.526.56-.956 1.034-.956 1.051 0 .04 2.61 2.88 3.003 3.267.691.682 1.163.882 2.092.887.267 0 .575-.009.683-.022zm-17.085-.106a1.64 1.64 0 0 0 .363-.172c.157-.104.188-.112.294-.075.27.094.481.014.481-.184 0-.115-.086-.204-.23-.238l-.099-.024.056-.16c.12-.343-.028-.837-.301-1.004a.595.595 0 0 0-.262-.072.421.421 0 0 1-.28-.111 1.797 1.797 0 0 0-.73-.325c-.227-.03-.65.08-.72.19-.061.096-.106.362-.098.582.007.21.176.578.356.778.086.095.135.187.135.252 0 .244.203.472.503.566.204.064.31.063.532-.003zm-.171-.539c.209-.134.378-.313.497-.523.106-.189.15-.162.095.058-.073.286-.401.573-.656.573-.097 0-.093-.006.064-.108zm-.562-.512c-.286-.268-.416-.62-.282-.767.09-.098.32-.097.527.003.158.076.465.372.465.448 0 .057-.425.486-.481.486-.026 0-.129-.076-.23-.17zm45.097.994c.237-.121.365-.315.339-.515-.004-.026.06-.127.141-.225.33-.397.436-.779.328-1.186-.065-.243-.082-.262-.303-.33-.382-.117-.798-.028-1.18.252-.135.1-.216.132-.332.132-.19 0-.396.166-.502.407-.081.182-.096.522-.03.691.05.132.034.16-.11.188-.228.046-.24.366-.014.422.055.014.18.005.277-.02.168-.043.184-.04.34.064.159.104.307.171.464.21.13.031.437-.016.582-.09zm-.638-.416c-.232-.092-.487-.448-.486-.678v-.123l.11.187c.143.245.243.357.463.521.151.113.167.134.094.132a.64.64 0 0 1-.18-.039zm.277-.535a1.127 1.127 0 0 1-.22-.259l-.07-.132.101-.133a.862.862 0 0 1 .66-.34c.184-.001.21.009.253.097.099.204-.157.693-.44.84a.823.823 0 0 1-.122.054 1.31 1.31 0 0 1-.162-.127zm-31.29.933c0-.066-.025-.097-.085-.109-.836-.159-1.022-.227-1.203-.439-.234-.273-.226-.163-.24-3.217-.008-1.903.001-2.868.03-3.035.082-.495.291-.699.854-.833.33-.079.346-.088.336-.177l-.011-.094h-3.746l-.011.098c-.011.095-.002.1.3.156.668.124.937.307 1.067.728.062.2.067.433.067 3.026 0 2.575-.005 2.827-.066 3.022-.08.263-.21.42-.435.534-.178.089-.603.209-.743.209-.136 0-.198.042-.198.135v.09h4.083zm10.637.001c0-.077-.023-.095-.14-.114-.316-.05-.71-.142-.834-.193-.368-.151-.565-.411-.634-.838-.026-.155-.04-1.347-.04-3.304v-3.062h.596c.996 0 1.406.12 1.813.533.262.265.395.492.551.938.093.268.12.31.203.32.091.011.095.003.092-.169-.002-.1-.031-.593-.066-1.098l-.062-.918-3.674-.01-3.673-.009-.045.74-.069 1.108-.023.369.102-.013c.09-.01.112-.044.196-.293.133-.397.3-.693.532-.944.385-.416.845-.554 1.844-.554h.596v3.062c0 3.135-.011 3.41-.148 3.675-.188.366-.514.524-1.36.66-.117.019-.14.037-.14.114v.092h4.382v-.092zm6.704 0c0-.067-.024-.098-.084-.11-.046-.01-.219-.042-.384-.073-.417-.077-.7-.192-.846-.341-.23-.235-.234-.27-.25-1.828l-.014-1.414h4.354l-.011 1.452c-.011 1.42-.013 1.455-.095 1.608-.151.282-.444.435-1.026.534-.406.07-.407.07-.407.171v.093H36.9v-.093c0-.066-.023-.097-.084-.108-.834-.156-1.102-.292-1.244-.631-.118-.285-.138-.827-.124-3.439.013-2.319.02-2.584.08-2.763.133-.404.409-.587 1.065-.71.301-.055.31-.06.3-.155l-.011-.098-2.032-.01-2.032-.01v.107c0 .105.003.107.418.189.485.096.712.186.884.353.216.208.233.34.233 1.738v1.248h-4.35l.015-1.283c.01-.882.03-1.328.061-1.426.108-.332.424-.513 1.127-.643.344-.063.39-.087.37-.193-.014-.067-.1-.07-2.046-.08l-2.031-.01v.108c0 .104.007.108.327.17.41.078.785.258.899.43.176.267.175.25.188 3.17.013 2.793.001 3.115-.121 3.352-.137.263-.426.431-.9.522-.406.078-.393.073-.393.172v.093h4.082v-.093zM3.223 28.078l.052-.151.365-.044c.562-.067.902-.231 1.069-.515.163-.278.097-.575-.164-.737-.068-.042-.117-.083-.11-.09.008-.008.182-.048.386-.09.65-.133.967-.36 1.088-.778.135-.461-.084-.77-.645-.913-.163-.042-.173-.05-.09-.073.052-.015.205-.028.34-.03.945-.015 1.457-.408 1.458-1.12 0-.415-.111-.632-.393-.761-.175-.081-.377-.088-.777-.027-.16.024-.3.034-.312.022-.05-.05.08-.192.317-.344.305-.195.466-.381.57-.658.227-.598-.125-1.295-.818-1.621-.332-.156-.745-.17-1.04-.035-.256.118-.48.347-.604.621-.092.202-.107.288-.125.724-.011.28-.038.512-.06.535-.03.03-.1-.056-.248-.307-.31-.524-.583-.677-.952-.536-.225.086-.538.402-.675.68-.093.19-.108.263-.108.539 0 .44.126.695.558 1.132.301.305.435.478.37.478-.018 0-.127-.034-.245-.075-.251-.089-.514-.097-.661-.02-.353.182-.52.794-.343 1.258.1.26.215.401.588.716l.32.27-.168.042c-.335.085-.49.272-.486.588.006.435.402.835 1.029 1.038.122.04.14.062.163.202.033.2.08.257.202.243.075-.008.108-.044.15-.163zm.191-.774c0-.092.27-1.446.36-1.808.219-.874.599-2.005 1.124-3.347.131-.336.24-.643.24-.68 0-.086-.136-.134-.207-.075-.078.065-.573 1.088-.857 1.77-.547 1.314-.835 2.26-1.038 3.41-.14.794-.104.751-.465.553-.164-.09-.356-.295-.356-.379 0-.015.072-.04.16-.055.445-.074.623-.392.443-.79-.047-.104-.185-.253-.425-.458-.46-.393-.554-.597-.436-.936.049-.14.094-.145.39-.043.12.04.275.075.346.075.442 0 .684-.465.464-.892-.046-.088-.235-.32-.42-.515-.186-.195-.362-.412-.392-.484-.12-.285-.031-.6.24-.86l.154-.148.088.084c.049.045.155.203.235.351.267.49.5.633.805.495.192-.086.393-.31.443-.492.022-.078.04-.311.04-.517 0-.206.019-.438.04-.516.052-.187.232-.387.398-.442.486-.16 1.137.334 1.09.828-.022.227-.106.337-.409.54-.3.2-.459.385-.52.604-.08.285.025.605.234.713.1.052.177.057.458.033.187-.016.432-.03.545-.033l.206-.004.011.219c.022.412-.17.535-.912.588-.722.05-.984.204-1.017.593-.027.313.13.467.621.608.134.038.258.084.276.102.052.052-.062.282-.176.357-.056.037-.296.108-.533.158-.464.099-.586.147-.71.283-.252.28-.214.592.096.78.084.052.153.106.153.122 0 .059-.207.158-.426.204-.289.06-.36.061-.36.004zm40.414.872a.511.511 0 0 0 .04-.196c0-.12.01-.128.273-.227.56-.21.884-.542.917-.943.029-.349-.12-.548-.476-.639l-.169-.043.329-.278c.18-.154.379-.355.44-.447.249-.375.277-.802.08-1.2-.184-.37-.485-.464-.964-.3-.12.042-.224.076-.23.076-.061 0 .04-.131.344-.45.462-.483.597-.746.594-1.162-.002-.356-.118-.626-.392-.915-.323-.342-.605-.431-.894-.284-.178.09-.323.263-.51.603-.078.143-.154.26-.17.26-.06 0-.085-.155-.091-.58-.006-.362-.023-.491-.089-.662a1.184 1.184 0 0 0-1.496-.708c-1 .338-1.387 1.373-.77 2.06.092.102.23.223.306.268.189.113.345.261.345.327 0 .042-.034.049-.159.03-.664-.102-.935-.059-1.147.183-.226.257-.244.777-.039 1.136.192.335.564.516 1.14.552.164.01.375.029.467.04l.168.02-.262.084c-.334.106-.454.186-.544.363-.098.19-.092.423.015.651.173.368.435.534 1.034.654.211.042.393.077.404.077.012 0-.05.051-.138.114-.182.133-.28.331-.249.5.078.413.552.699 1.256.757.29.025.295.026.317.138a.456.456 0 0 0 .064.163c.062.075.212.062.256-.022zm-.885-.882a1.273 1.273 0 0 1-.332-.117l-.102-.067.085-.058c.173-.118.333-.292.358-.39.036-.145-.079-.419-.221-.527-.124-.094-.33-.16-.829-.266-.243-.052-.322-.087-.424-.19-.202-.2-.164-.276.2-.393.394-.128.486-.192.564-.394.082-.216.03-.41-.153-.57-.169-.148-.315-.187-.87-.23-.493-.04-.654-.087-.791-.236a.53.53 0 0 1-.084-.49c.04-.107.044-.108.275-.084.128.013.377.034.553.046.305.021.325.018.435-.075.16-.134.212-.282.193-.544-.022-.3-.149-.485-.479-.699a1.846 1.846 0 0 1-.335-.264c-.082-.105-.157-.328-.135-.401.007-.025.024-.092.037-.15.03-.137.296-.424.48-.518.365-.186.748-.092.923.227.08.148.09.214.096.642.004.429.014.495.099.658.11.215.334.386.542.414.113.014.176-.001.277-.07.127-.085.193-.174.496-.665.076-.125.16-.227.184-.227.025 0 .124.082.22.181.264.274.317.575.158.887-.032.062-.207.267-.39.456-.471.488-.568.743-.404 1.064.148.29.413.362.813.222.323-.114.366-.105.421.092.093.332-.023.538-.542.959-.282.23-.394.413-.394.65 0 .312.142.463.497.528.096.018.14.046.14.09 0 .095-.218.286-.45.393-.249.116-.219.17-.354-.625a12.557 12.557 0 0 0-.489-1.96c-.422-1.262-1.277-3.165-1.447-3.22-.19-.06-.188.098.01.592.728 1.825 1.17 3.254 1.418 4.58.066.35.128.674.14.72.023.101-.035.105-.388.029zM7.87 21.265c.058-.03.115-.078.126-.107.012-.032.106-.064.238-.08.489-.061.837-.286 1.042-.672l.111-.21-.092-.174c-.204-.384-.562-.609-1.02-.641-.224-.016-.281-.034-.338-.106-.134-.171-.48-.187-.774-.035-.135.07-.348.309-.411.463-.038.09-.067.116-.112.097-.233-.103-.416-.028-.416.169 0 .119.065.186.29.299.13.065.16.1.16.182 0 .134.19.53.306.636.236.217.654.302.89.18zm-.588-.553c-.177-.19-.214-.566-.08-.84.096-.2.15-.21.106-.022-.049.208-.042.529.016.75.028.108.048.196.044.196a.796.796 0 0 1-.086-.084zm.514-.182c-.055-.103-.063-.583-.01-.636.071-.072.404-.083.617-.02.274.079.406.185.406.325 0 .22-.266.377-.68.402-.27.016-.29.012-.333-.07zm31.709.72c.273-.126.512-.455.564-.779.02-.127.044-.154.215-.237.233-.114.298-.24.2-.39-.07-.107-.233-.13-.36-.051-.04.025-.078.037-.084.028a8.413 8.413 0 0 1-.108-.205.895.895 0 0 0-.61-.467c-.23-.048-.396-.002-.526.143-.056.064-.114.08-.28.081-.225.001-.54.11-.75.259-.149.107-.378.442-.378.555 0 .139.225.496.385.612.183.133.485.248.738.281.14.019.222.055.3.133.094.094.135.107.325.106.131 0 .279-.028.369-.07zm-.116-.503c.096-.304.097-.861.002-1.047-.013-.026.02 0 .071.057a.8.8 0 0 1 .173.451.952.952 0 0 1-.174.497c-.058.068-.085.084-.072.042zm-1.158-.227c-.258-.121-.342-.221-.297-.351.043-.122.234-.257.443-.314.15-.04.53-.024.579.024.013.013.024.167.024.34 0 .374-.012.388-.337.389a.906.906 0 0 1-.412-.088zm3.039-.963a.734.734 0 0 0 .18-.154c.046-.067.097-.077.405-.082.322-.004.368-.014.536-.118.347-.215.505-.575.374-.852a.321.321 0 0 1-.023-.277c.059-.213.046-.606-.027-.809-.071-.197-.282-.485-.407-.554-.11-.06-.505.04-.705.181a1.6 1.6 0 0 0-.494.645c-.043.119-.095.186-.175.225-.202.1-.268.233-.267.536 0 .305.06.45.272.671l.134.14-.076.085c-.118.13-.129.165-.089.27.03.079.127.153.221.168a.762.762 0 0 0 .141-.075zm.291-.739c-.191-.08-.284-.149-.364-.272l-.063-.096.253.125c.145.072.373.146.534.173l.28.048-.127.045a.67.67 0 0 1-.513-.023zm.247-.567a1.638 1.638 0 0 1-.22-.093c-.121-.063-.125-.072-.104-.231a.956.956 0 0 1 .322-.589c.241-.218.411-.162.49.162.05.21.028.388-.077.627-.062.143-.083.159-.193.156a1 1 0 0 1-.218-.032zM5.79 19.538c.088-.087.073-.252-.033-.35l-.09-.086.111-.095c.394-.33.42-1.064.046-1.245-.086-.042-.142-.116-.217-.286-.115-.265-.3-.497-.49-.614-.132-.082-.462-.185-.593-.186-.085 0-.337.264-.445.468-.094.178-.134.705-.071.933.031.114.028.167-.015.25-.153.296.033.704.414.908.12.064.215.08.482.08l.333.001.14.14c.155.155.323.187.428.082zm-1.102-.697c-.131-.041-.131-.041.173-.103.167-.033.408-.115.535-.182.176-.092.223-.105.196-.055-.145.268-.596.438-.904.34zm-.108-.605c-.07-.085-.155-.388-.155-.556 0-.158.088-.404.161-.45.095-.06.22-.025.362.104.166.15.283.37.32.606l.026.16-.18.08c-.245.108-.471.132-.534.056zm4.013.484c.29-.14.391-.47.236-.767-.052-.1-.055-.123-.013-.107.383.147.718.227.966.23.248.004.305-.01.487-.111.27-.152.45-.406.45-.64 0-.205-.071-.345-.29-.58-.094-.1-.159-.182-.144-.182.015 0 .207.084.426.186.587.271.876.32 1.213.206.45-.154.799-.76.667-1.159-.093-.281-.286-.422-.87-.635-.302-.11-.206-.191.282-.24.338-.035.635-.147.833-.315.15-.127.308-.422.353-.658.11-.575-.3-1.341-.85-1.587a1.22 1.22 0 0 0-.953.018c-.285.14-.49.353-.67.701-.16.306-.303.474-.37.432-.024-.014-.04-.164-.04-.369 0-.426-.048-.606-.203-.76-.248-.248-.627-.244-1.12.014-.627.327-.827.945-.575 1.783.055.182.1.383.1.446v.114l-.237-.228c-.273-.262-.46-.336-.69-.273-.393.105-.716.544-.75 1.016-.015.218 0 .3.137.696.085.247.154.459.154.471 0 .013-.062.006-.139-.016-.471-.13-.82.187-.79.717.016.3.133.556.408.897l.193.24-.06.127c-.08.168-.077.221.02.289.089.062.17.037.32-.1l.084-.077.254.117c.14.064.32.134.403.154.221.055.615.03.778-.05zm-.795-.55a1.21 1.21 0 0 1-.233-.1c-.04-.04.872-1.13 1.432-1.71.757-.784 2.123-2.02 2.688-2.433.147-.108.195-.165.187-.224-.023-.164-.154-.106-.76.335-1.767 1.287-2.723 2.148-3.576 3.218-.214.268-.4.487-.414.487-.041 0-.207-.21-.294-.374-.081-.15-.11-.431-.045-.431a.62.62 0 0 1 .137.039c.162.061.415.052.524-.019a.64.64 0 0 0 .173-.236c.099-.222.077-.452-.08-.847-.208-.522-.192-.777.064-1.001l.137-.12.188.208c.335.37.57.446.86.28.3-.173.362-.537.189-1.134-.185-.636-.163-.843.111-1.097.186-.17.57-.314.62-.231.016.024.036.242.046.482.028.662.14.83.556.83.368 0 .62-.198.858-.672.316-.628.775-.77 1.188-.37.259.25.365.745.214 1-.114.195-.27.266-.71.323-.285.038-.443.079-.554.144-.27.158-.43.568-.313.795.09.175.188.24.595.394.497.188.512.203.426.428-.147.384-.442.407-1.119.085-.387-.184-.439-.199-.693-.199-.268 0-.277.003-.401.139-.253.276-.225.482.115.853.133.145.242.279.242.297 0 .07-.233.228-.337.228-.058 0-.294-.059-.524-.13-.631-.199-.902-.164-1.087.14-.096.158-.093.229.02.471.05.11.093.208.093.216 0 .042-.344 0-.523-.063zm31.165.581c.112-.032.3-.102.418-.154l.214-.095.134.117c.15.132.147.13.245.078.086-.046.095-.185.02-.33-.05-.097-.046-.11.132-.325.102-.123.24-.333.306-.467.1-.203.12-.285.12-.505 0-.306-.077-.473-.283-.613-.107-.073-.163-.085-.335-.07-.113.009-.235.029-.272.044-.047.02-.06.014-.049-.023l.147-.407c.166-.457.193-.67.12-.946-.164-.618-.711-.981-1.144-.759-.072.037-.22.162-.327.278-.177.19-.197.2-.197.118 0-.05.052-.277.116-.503.206-.727.12-1.219-.278-1.586a1.492 1.492 0 0 0-.703-.37c-.293-.075-.487-.042-.661.11-.19.166-.242.322-.264.784-.01.221-.03.402-.043.402-.078 0-.192-.14-.32-.393a2.607 2.607 0 0 0-.305-.464c-.468-.521-1.247-.534-1.752-.029-.304.303-.502.82-.462 1.204.044.423.31.795.686.962.093.04.32.09.506.109.52.053.615.135.286.243-.251.083-.548.225-.652.312-.253.21-.306.548-.141.903.174.375.453.588.822.626.266.028.523-.039.995-.256.218-.1.41-.183.427-.183.017 0-.063.099-.178.22-.364.381-.372.688-.025 1.024.334.324.679.361 1.325.143.184-.062.349-.113.366-.113.017 0-.003.067-.045.148-.152.299-.052.584.26.741.202.102.496.112.791.025zm-.472-.68c.174-.326.107-.598-.181-.735-.192-.091-.385-.075-.848.07-.464.146-.555.156-.707.077-.226-.116-.223-.148.045-.432.31-.327.364-.484.254-.73-.15-.339-.469-.406-.97-.205a2.916 2.916 0 0 0-.325.145c-.087.068-.482.19-.618.19-.186 0-.358-.14-.418-.339-.058-.194-.025-.229.355-.375.45-.174.578-.248.642-.37.127-.247.028-.619-.215-.802-.147-.111-.328-.164-.711-.208-.455-.053-.661-.217-.693-.553-.044-.47.374-.989.795-.985.136 0 .382.138.478.266.052.07.147.23.21.358.227.453.49.648.874.648.22 0 .36-.073.45-.237.025-.045.056-.296.068-.559.012-.265.04-.496.063-.519.063-.063.416.055.587.197.271.224.316.54.154 1.083a3.86 3.86 0 0 0-.118.512c-.042.36.158.687.454.743.23.043.36-.016.646-.293l.27-.263.13.13c.246.246.25.47.021 1.06-.175.45-.153.766.068.966.122.11.272.134.49.078.11-.028.215-.042.234-.03.104.064-.024.422-.24.672l-.122.141-.335-.426c-.69-.878-1.333-1.511-2.412-2.373-.684-.547-1.818-1.369-1.887-1.369-.075 0-.145.091-.119.155.012.028.109.112.216.187.27.189 1.017.833 1.745 1.507a21.01 21.01 0 0 1 1.962 2.077l.441.533-.104.04c-.297.117-.408.146-.558.146h-.165l.094-.178zM17.62 15.606c3.666-1.256 7.792-1.256 11.52 0 .543.182.659.183.703.007.04-.158-.039-.235-.348-.34a18.921 18.921 0 0 0-4.158-.945c-.792-.095-3.123-.095-3.915 0-1.38.164-2.564.42-3.758.814-.667.22-.765.272-.765.41 0 .04.167.225.204.225.011 0 .244-.077.517-.17zm-.707-.706c.131-.16.158-.172.82-.39a18.331 18.331 0 0 1 4.804-.886l.412-.022.221.128.221.127.223-.13.223-.131.68.044c1.613.104 3.07.38 4.575.867.546.177.566.187.734.374l.173.193.417-.232c.23-.128.418-.244.418-.258 0-.013-.071-.222-.16-.464l-.159-.44-.187.021c-.159.017-.263-.006-.675-.153-1.618-.577-3.563-.955-5.242-1.018-.598-.023-.647-.03-.832-.128l-.197-.103-.198.109c-.18.098-.231.109-.556.11-.197 0-.635.026-.974.058a18.422 18.422 0 0 0-4.436.956c-.628.217-.576.206-.805.171l-.169-.025-.165.45c-.09.249-.153.463-.139.477.034.034.785.457.815.459a.773.773 0 0 0 .158-.164zm-.426-.367a12.257 12.257 0 0 1-.143-.09.801.801 0 0 1 .056-.2c.057-.16.082-.19.144-.174.04.01.163.03.272.044.109.014.207.04.218.058.025.041-.315.445-.373.444a.602.602 0 0 1-.174-.082zm13.393-.123c-.096-.113-.166-.22-.155-.239.011-.018.11-.044.218-.058a3.63 3.63 0 0 0 .274-.045c.063-.015.087.014.144.173a.706.706 0 0 1 .055.201 1.57 1.57 0 0 1-.322.174c-.021 0-.117-.093-.214-.206zm-10.624-.728c-.127-.128-.144-.289-.042-.415.05-.061.168-.105.459-.17a4.67 4.67 0 0 1 .479-.09c.125-.003.306.191.306.328 0 .201-.098.269-.526.365-.506.114-.545.113-.676-.018zm7.553.016c-.408-.093-.508-.164-.508-.363 0-.137.18-.33.306-.328.048 0 .264.041.479.09.428.096.526.163.526.364 0 .15-.18.332-.325.326a4.445 4.445 0 0 1-.478-.089zm-3.756-.424a2.214 2.214 0 0 1-.31-.194c0-.03.635-.382.666-.368.126.054.607.341.607.361 0 .024-.61.384-.642.38a7.494 7.494 0 0 1-.321-.179zm-6.727-.021c1.432-.575 3.303-1.018 5.087-1.204a23.93 23.93 0 0 1 3.128-.058c1.966.132 3.963.547 5.543 1.152.785.3.785.3 1.022.225.273-.086.521-.256.826-.567.242-.246.265-.26.444-.271a.887.887 0 0 0 .773-1.22c-.037-.095-.02-.124.236-.425.515-.601.558-.66.617-.864.164-.564-.275-1.165-.856-1.172-.17-.002-.176-.036-.028-.145.241-.179.343-.606.216-.906-.155-.364-.59-.565-.954-.439-.087.03-.165.049-.173.04-.008-.007.025-.092.074-.188.14-.276.109-.523-.092-.737a.637.637 0 0 0-.911-.037c-.117.111-.16.07-.103-.098a.705.705 0 0 0-.074-.555c-.226-.317-.767-.306-.97.02-.038.062-.091.1-.127.093-.052-.01-.059-.048-.042-.233.016-.181.006-.242-.06-.35a.537.537 0 0 0-.915.017c-.046.08-.1.144-.12.143-.02 0-.072-.072-.115-.159-.114-.23-.357-.37-.657-.377l-.231-.005-.046-.18a.655.655 0 0 0-.422-.463c-.169-.064-.206-.06-.542.05-.05.016-.066 0-.066-.06 0-.212-.242-.467-.483-.507-.177-.03-.46.078-.526.201-.061.114-.14.097-.166-.037a.528.528 0 0 0-.33-.388.495.495 0 0 0-.65.245c-.077.148-.134.14-.09-.013.052-.182.042-.56-.02-.735a1.284 1.284 0 0 0-.429-.583l-.153-.106v-.664h.162c.257 0 .4-.201.4-.562 0-.36-.143-.562-.4-.562h-.162V.428c0-.272-.205-.428-.563-.428-.378 0-.598.175-.598.474 0 .083-.016.095-.128.095-.183 0-.234.028-.328.18-.165.267-.078.838.142.922a.688.688 0 0 0 .186.022h.128v.356c0 .217-.015.356-.038.356-.021 0-.112.067-.201.15-.308.283-.444.758-.348 1.211.037.176-.01.171-.132-.013-.192-.289-.565-.333-.803-.095a.562.562 0 0 0-.146.257c-.031.167-.065.171-.21.026a.579.579 0 0 0-.549-.152c-.206.055-.42.302-.42.486 0 .093-.023.095-.208.018-.359-.15-.773.101-.839.508l-.021.132-.227.005c-.335.007-.561.136-.694.398-.04.077-.087.14-.105.14-.018 0-.065-.062-.104-.137-.134-.258-.499-.354-.754-.199-.177.109-.288.37-.239.565.031.122.027.152-.023.18-.046.026-.08.005-.144-.088-.224-.33-.746-.322-.977.016-.092.135-.116.433-.045.565.06.114.003.164-.09.08-.458-.418-1.149-.099-1.101.508.01.123.046.239.095.305.043.059.07.116.059.127-.011.011-.09-.005-.176-.036-.326-.117-.729.038-.913.353a.795.795 0 0 0 .175.994.49.49 0 0 1 .114.117c0 .012-.073.021-.162.021-.209 0-.516.153-.664.331a1.04 1.04 0 0 0-.21.705c.032.23.138.418.4.713.125.14.296.343.38.45l.15.196-.046.182a.89.89 0 0 0 .695 1.09c.102.02.198.028.212.019.015-.01.159.116.32.278.375.378.752.6 1.028.604.055.001.283-.072.507-.162zm-.738-.506a.972.972 0 0 1-.447-.288c-.119-.136-.12-.14-.05-.21.063-.063.093-.067.246-.032.379.084.764-.101.94-.452.228-.459.038-1.008-.409-1.179-.203-.077-.65-.06-.828.033-.117.061-.118.061-.164-.05a1.047 1.047 0 0 0-.22-.271l-.173-.158.044-.169c.024-.093.045-.305.047-.472.013-1.303.984-2.471 2.64-3.177.515-.22.604-.244.416-.115a.745.745 0 0 0-.32.374c-.137.286-.08.629.147.885l.145.163-.137.133a.948.948 0 0 0-.296.665c-.028.407.201.804.554.963.131.06.15.084.15.19 0 .068.01.147.02.176.016.039-.01.055-.09.057a.837.837 0 0 0-.722.851c0 .493.358.855.85.86a.806.806 0 0 0 .729-.387l.131-.2.033.151a.887.887 0 0 1-.406.925c-.339.199-.947.152-1.294-.099a1.441 1.441 0 0 0-.161-.108c-.007 0-.053.089-.101.197-.11.243-.429.568-.655.668-.193.086-.481.121-.619.076zm15.108 0c-.38-.097-.702-.419-.933-.932a1.41 1.41 0 0 0-.218.118 1.321 1.321 0 0 1-.824.202c-.61-.05-.945-.503-.823-1.114l.025-.121.045.106c.285.676 1.241.703 1.57.045a.854.854 0 0 0-.516-1.211c-.092-.028-.175-.043-.185-.033-.01.01-.009-.063.002-.162s.032-.185.047-.19c.015-.006.103-.06.196-.118.56-.355.642-1.082.175-1.56l-.148-.151.1-.092c.13-.12.275-.433.276-.593 0-.07-.02-.193-.044-.273-.05-.166-.293-.463-.41-.5-.042-.014-.07-.031-.061-.04.024-.024.561.195.932.38.922.462 1.615 1.111 1.957 1.832.182.383.25.672.285 1.205.017.25.049.488.07.53.035.064.022.087-.1.168a.839.839 0 0 0-.23.26l-.089.168-.182-.07a1.088 1.088 0 0 0-.86.037c-.496.26-.563 1.004-.123 1.39.227.2.646.27.882.15.041-.022.08-.01.122.036.057.063.054.077-.048.218-.18.248-.586.391-.89.314zm-16.573-.657c-.12-.083-.163-.15-.236-.372-.038-.119.046-.34.18-.47.421-.408 1.092.07.854.609a.533.533 0 0 1-.798.233zm17.92.02a.541.541 0 0 1 .23-1.006c.179-.02.325.04.468.194.07.074.095.15.108.318.015.215.011.226-.133.38-.132.142-.169.16-.35.174-.157.012-.23-.002-.323-.06zm-12.226-.43a.887.887 0 0 1-.578-.67l-.026-.142.188.116c.249.155.429.194.67.145a.816.816 0 0 0 .588-.45c.23-.46.056-.966-.406-1.181-.199-.093-.462-.116-.584-.05-.061.032-.073.026-.073-.04 0-.102-.097-.292-.213-.416-.088-.095-.09-.104-.032-.192.057-.087.054-.112-.05-.425-.275-.829-.213-1.727.163-2.35.395-.657 1.015-1.079 1.949-1.327.327-.087 1.014-.196 1.236-.196.118 0 .135.01.113.066-.078.192-.252.976-.319 1.431-.08.545-.164 1.466-.206 2.237l-.025.457.152.096c.14.088.152.107.144.245l-.009.15-.168.001c-.452.003-.825.397-.824.869a.85.85 0 0 0 .87.853.824.824 0 0 0 .637-.294l.14-.155v.159a.83.83 0 0 1-.23.61c-.2.219-.408.295-.734.271-.31-.023-.544-.128-.803-.361-.111-.1-.199-.154-.207-.129-.038.114-.286.388-.447.495-.315.208-.648.273-.916.177zm6.507-.01c-.308-.094-.521-.26-.732-.568l-.085-.123-.185.173c-.229.214-.466.322-.76.345-.287.023-.488-.032-.669-.18-.187-.155-.293-.372-.316-.65l-.02-.228.136.156c.396.455 1.095.409 1.395-.091.14-.234.174-.41.123-.641-.081-.372-.444-.679-.802-.679-.156 0-.16-.003-.175-.134-.015-.122-.004-.14.126-.215l.143-.081V8.36c0-1.266-.249-3.126-.509-3.797-.025-.066-.01-.068.288-.042.731.065 1.566.303 2.044.584.284.166.792.671.939.933.203.361.278.648.3 1.146.022.507-.02.824-.163 1.24-.087.254-.09.277-.034.384.032.063.042.114.021.114-.055 0-.263.379-.263.48 0 .072-.012.079-.073.046-.092-.049-.32-.05-.487-.002a.857.857 0 0 0-.499.405c-.133.25-.156.423-.085.665a.859.859 0 0 0 1.418.396l.106-.098-.027.15c-.043.234-.078.305-.245.486a.71.71 0 0 1-.345.225c-.23.069-.328.068-.565-.005zm-7.687-.964c-.25-.113-.364-.422-.256-.69.15-.375.613-.454.9-.154.098.102.11.14.11.354 0 .227-.008.248-.138.378-.112.112-.169.139-.318.15a.692.692 0 0 1-.298-.038zm8.985-.01a.542.542 0 0 1-.281-.491.518.518 0 0 1 .533-.515.53.53 0 0 1 .455.815.548.548 0 0 1-.707.191zm-14.43-.518c-.11-.113-.13-.162-.143-.354-.02-.285.07-.448.315-.567a.57.57 0 0 1 .827.445c.03.225-.043.381-.18.381-.088 0-.31.071-.634.203-.036.015-.103-.024-.184-.108zm9.9.057a.48.48 0 0 1-.251-.456c0-.409.423-.659.793-.468.354.183.36.758.011.94a.638.638 0 0 1-.554-.016zm10.007-.043a1.503 1.503 0 0 0-.384-.107c-.097-.001-.13-.022-.16-.098-.169-.445.255-.907.708-.771.076.023.196.1.266.173.109.112.13.163.143.347.012.18 0 .237-.073.343-.152.221-.202.233-.5.113zM17.812 9.038a.636.636 0 0 1-.157-.961c.155-.176.29-.241.502-.241.369 0 .668.307.644.662l-.011.175-.19.043c-.224.05-.445.178-.528.304-.07.108-.108.11-.26.018zm10.763-.076c-.14-.145-.404-.265-.582-.265-.088 0-.09-.006-.076-.235.018-.28.115-.44.333-.552a.655.655 0 0 1 .795.147.645.645 0 0 1 .065.781c-.071.117-.277.272-.356.27-.021 0-.101-.066-.179-.146zm-14.699-.487c-.15-.092-.199-.183-.199-.374 0-.396.506-.57.765-.262.311.37-.15.889-.566.636zm18.526.017a.428.428 0 0 1-.118-.656.429.429 0 0 1 .701.488c-.103.2-.377.28-.583.168zm-8.647-.135a.776.776 0 0 0-.63-.055c-.097.034-.207.072-.243.083-.049.016-.08-.012-.122-.113-.203-.488.188-1.018.7-.95.316.043.594.356.592.666 0 .11-.123.456-.157.443a5.646 5.646 0 0 1-.14-.074zm-5.833-.974c-.149-.043-.302-.222-.333-.39-.049-.26.22-.58.49-.58.26 0 .528.303.49.556a.5.5 0 0 1-.647.414zm10.563 0a.596.596 0 0 1-.335-.356c-.097-.385.344-.735.694-.55.188.098.278.24.278.437a.481.481 0 0 1-.637.47zM14.766 7.1c-.109-.138-.097-.261.036-.395.096-.095.134-.11.235-.09.155.03.25.147.25.307 0 .175-.109.277-.296.277-.114 0-.165-.022-.225-.099zm16.787.074c-.081-.032-.162-.23-.137-.33.03-.118.184-.244.3-.244.047 0 .132.04.19.089.136.117.144.336.016.44-.081.066-.263.088-.37.045zm-8.463-.198C22.638 6.7 22.845 6 23.378 6c.316 0 .525.212.525.531a.53.53 0 0 1-.813.444zm-7.178-.67c-.137-.15-.02-.418.181-.418.205 0 .325.29.175.425-.09.082-.28.079-.356-.006zm14.533 0c-.216-.238.123-.565.343-.331a.303.303 0 0 1 .082.168c0 .195-.294.308-.425.164zm-1.652-.227c-.011-.019.013-.025.054-.014.088.022.099.048.021.048-.03 0-.063-.015-.075-.034zm-10.392-.056c-.12-.066-.189-.199-.19-.366a.382.382 0 0 1 .359-.368c.26 0 .426.162.426.417 0 .165-.211.37-.38.368a.54.54 0 0 1-.215-.05zm9.528.009c-.136-.075-.204-.194-.205-.362 0-.226.151-.381.375-.381.214 0 .411.188.411.393 0 .279-.339.483-.58.35zm-10.804-.31c-.142-.17.096-.414.26-.266.084.077.099.206.03.275-.061.062-.236.056-.29-.01zm6.083.001c-.347-.151-.31-.665.055-.775.119-.035.165-.032.28.023a.408.408 0 0 1 .01.744c-.154.072-.195.073-.345.008zm6.096.008c-.066-.066-.055-.197.024-.268.089-.08.167-.078.244.007.124.137.054.306-.126.306-.053 0-.117-.02-.142-.045zm-9.991-.646c-.113-.113-.118-.24-.015-.372a.282.282 0 0 1 .41-.023c.111.111.1.312-.024.409-.131.103-.259.098-.371-.014zm7.714.004a.287.287 0 0 1-.03-.403c.1-.11.327-.096.424.027.089.113.095.16.036.29a.348.348 0 0 1-.276.174c-.03 0-.098-.04-.154-.088zm-3.829-.438a.271.271 0 0 1 .017-.408.356.356 0 0 1 .163-.078c.124 0 .263.147.263.277 0 .24-.271.368-.443.209zm-2.854-.149c-.093-.093-.096-.23-.006-.312.143-.13.381-.033.381.156 0 .102-.126.231-.225.231a.26.26 0 0 1-.15-.075zm5.74.017c-.1-.07-.112-.245-.025-.332.088-.088.263-.075.333.024.08.115.073.19-.029.285-.103.096-.167.102-.28.023zm-4.597-.391c-.1-.111-.026-.262.129-.262.167 0 .244.164.13.278-.08.08-.178.074-.26-.016zm3.457-.022c-.062-.134 0-.222.157-.222.091 0 .13.02.153.08.073.199-.223.334-.31.142zm-1.716-.242c-.053-.098-.016-.213.077-.243.174-.055.306.09.224.243-.055.104-.246.104-.301 0zm-.63-.094a.538.538 0 0 1-.044-.185c0-.077.023-.093.17-.115a.514.514 0 0 1 .189-.007c.01.01 0 .063-.02.119a.655.655 0 0 0-.039.192c0 .076-.019.092-.106.092-.078 0-.118-.026-.15-.096zm1.305-.007a.549.549 0 0 0-.056-.21l-.056-.108.14.025c.303.054.305.056.217.266-.042.1-.076.13-.15.13-.079 0-.095-.018-.095-.103zm-1.243-.771a.83.83 0 0 1 .179-.198c.101-.078.13-.085.234-.049.1.036.118.06.118.167 0 .135-.005.137-.456.177l-.138.012zm1.243.1c-.355-.036-.375-.045-.375-.175 0-.102.02-.129.118-.166.14-.053.202-.026.364.16.124.14.148.21.07.2a9.66 9.66 0 0 0-.177-.02zm-.72-1.221l-.01-.534-.268-.01c-.25-.011-.269-.017-.285-.104a.586.586 0 0 1 0-.184c.016-.086.034-.093.285-.103l.267-.01.011-.272.011-.272h.372v.559l.271.01.272.012V1.3l-.272.01-.271.012V2.405h-.373l-.01-.534z" fill="#0063ad"/><path d="M-5.276 55.705c0-.074.025-.074 28.71-.074 28.686 0 28.711 0 28.711.074 0 .075-.025.075-28.71.075-28.686 0-28.71 0-28.71-.075z" fill="#000c15"/></svg>