<svg width="25" height="18" xmlns="http://www.w3.org/2000/svg"><path d="M10.174 9.703l1.772 1.503a.73.73 0 0 0 .942.002l1.854-1.562 7.464 6.336H2.725l7.45-6.28zm-7.46-8.245h19.481l-7.45 6.278-.565.477-.565.476-1.195 1.007-1.115-.946-.564-.478-.563-.48-7.464-6.334zm-1.257.845l7.59 6.443-7.59 6.398V2.304zm22.005 12.833l-7.59-6.443 7.59-6.396v12.839zM24.918.716a.807.807 0 0 0-.043-.237c-.002-.007-.006-.013-.009-.02a.718.718 0 0 0-.061-.119l-.018-.028a.773.773 0 0 0-.069-.083l-.012-.015L24.7.21A.776.776 0 0 0 24.6.126l-.018-.01a.66.66 0 0 0-.098-.052L24.451.05a.734.734 0 0 0-.095-.03l-.034-.007A.73.73 0 0 0 24.196 0L24.19 0H.73L.725.001a.674.674 0 0 0-.127.013L.565.02a.742.742 0 0 0-.097.03L.436.064a.71.71 0 0 0-.098.052l-.017.01A.74.74 0 0 0 .219.21L.213.214.2.231a.767.767 0 0 0-.064.08.76.76 0 0 0-.068.119L.052.46.045.479a.612.612 0 0 0-.028.103L.016.587A.688.688 0 0 0 0 .717v16.008c0 .043.005.086.013.128l.001.002c.007.036.017.071.03.106l.007.018.015.032a.754.754 0 0 0 .13.196l.016.02.007.005c.03.03.064.057.1.081l.022.013a.772.772 0 0 0 .223.094l.032.007a.757.757 0 0 0 .132.014H24.19a.763.763 0 0 0 .132-.014l.03-.007a.766.766 0 0 0 .231-.097l.014-.008a.695.695 0 0 0 .103-.085l.005-.003.012-.015a.778.778 0 0 0 .136-.205c.005-.008.009-.017.012-.025.003-.007.007-.013.009-.02a.64.64 0 0 0 .027-.1l.002-.008a.79.79 0 0 0 .014-.13l.002-.013V.729l-.002-.012z" fill="#FFF" fill-rule="evenodd"/></svg>