<svg width="32" height="32" xmlns="http://www.w3.org/2000/svg"><path d="M17.392 5.893l-.051.05L5.943 17.341l-.05.05.05.051.38.381 2.148 2.147.05.05.051-.05L19.97 8.572l.05-.05-.05-.05-.237-.237-.691-.691-1.65-1.651zm.336 14.833c.211 0 .41.083.56.233l8.906 8.907a1.887 1.887 0 0 0 2.675-2.664l-8.912-8.914a.784.784 0 0 1-.231-.559c0-.211.082-.41.231-.559l.635-.633a4.56 4.56 0 0 0 1.33-3.227 4.54 4.54 0 0 0-1.33-3.214l-.403-.405-.05-.05-.05.05L9.691 21.09l-.05.051.05.05.402.403a4.542 4.542 0 0 0 3.22 1.33 4.543 4.543 0 0 0 3.22-1.33l.635-.635a.785.785 0 0 1 .56-.232zM28.53 32h-.01c-.922 0-1.79-.36-2.443-1.016l-8.346-8.347-.079.077a6.106 6.106 0 0 1-4.333 1.792c-1.64 0-3.18-.636-4.343-1.793l-1.62-1.622L4.71 18.45 0 13.737l1.119-1.12 3.605 3.605.05.05.05-.05.885-.883.05-.05-.05-.05-3.606-3.606 1.119-1.119 3.605 3.607.05.05.051-.05.884-.884.05-.05-.05-.05-3.607-3.605 1.12-1.12 3.605 3.605.05.05.051-.05.883-.882.051-.05-.05-.051-3.607-3.606 1.12-1.12 3.605 3.606.05.05.05-.05.884-.884.05-.05-.05-.051-3.606-3.604 1.12-1.118 3.604 3.605.05.05.05-.05.885-.883.05-.05-.05-.051-3.606-3.606 1.12-1.118 3.603 3.604.051.05.05-.05.885-.883.05-.05-.05-.05-3.607-3.606L13.736 0l4.711 4.713 4.266 4.265a6.095 6.095 0 0 1 1.791 4.332 6.108 6.108 0 0 1-1.792 4.343l-.026.025-.05.05.05.052 8.292 8.293a3.486 3.486 0 0 1 1.02 2.456 3.443 3.443 0 0 1-1.017 2.456A3.447 3.447 0 0 1 28.529 32z" fill="#000" fill-rule="evenodd"/></svg>