<?xml version="1.0" encoding="UTF-8"?>
<svg width="40px" height="40px" viewBox="0 0 40 40" version="1.1" xmlns="http://www.w3.org/2000/svg" xmlns:xlink="http://www.w3.org/1999/xlink">
    <!-- Generator: Sketch 50.2 (55047) - http://www.bohemiancoding.com/sketch -->
    <title>meddelande</title>
    <desc>Created with Sketch.</desc>
    <defs></defs>
    <g id="Page-1" stroke="none" stroke-width="1" fill="none" fill-rule="evenodd">
        <g id="contacts" transform="translate(-239.000000, -280.000000)">
            <g id="meddelande" transform="translate(239.000000, 280.000000)">
                <rect id="Rectangle-17-Copy-2" fill="#0094BB" x="0" y="0" width="40" height="40" rx="3"></rect>
                <path d="M18.6315811,20.2945167 L20.0900374,21.5322463 C20.2023924,21.6275074 20.340803,21.6751379 20.4787157,21.6751379 C20.6157987,21.6751379 20.7530476,21.6281712 20.8650706,21.5339059 L22.3914046,20.2475501 L28.5354093,25.4636725 L12.4991935,25.4636725 L18.6315811,20.2945167 Z M12.4902317,13.507749 L28.5264475,13.507749 L28.5261156,13.507749 L22.39406,18.675743 L21.9288741,19.0680724 L21.4636883,19.4600699 L20.4800434,20.289206 L19.5619528,19.5100239 L19.0980946,19.1166987 L18.6345683,18.7225437 L12.4902317,13.507749 Z M11.4559691,14.2037852 L17.7038647,19.5070366 L11.4559691,24.7732789 L11.4559691,14.2037852 Z M29.5691741,24.7669725 L23.3214444,19.4633891 L29.5691741,14.1983085 L29.5691741,24.7669725 Z M30.7679031,12.8976801 C30.7672392,12.8616667 30.7634222,12.8261513 30.7567838,12.7898061 C30.7561199,12.7888103 30.7554561,12.7874826 30.7549582,12.785823 C30.7498135,12.7577758 30.7431751,12.7298945 30.7328855,12.7021792 C30.730894,12.6965366 30.7275748,12.6913918 30.7252514,12.6855832 C30.7222641,12.678281 30.7189449,12.6716426 30.7156257,12.6643403 C30.7041745,12.6379527 30.6902338,12.6125608 30.6749655,12.5879987 C30.6699867,12.5800326 30.664676,12.5720666 30.6598631,12.5645984 C30.6429352,12.5403682 30.6236839,12.5176317 30.6036027,12.4960569 C30.5999516,12.4920739 30.5972962,12.487427 30.5933132,12.4839418 C30.5919855,12.4824482 30.5903259,12.4814524 30.5893301,12.4806226 C30.5634404,12.4550648 30.5350612,12.4321623 30.5055203,12.4115833 C30.5007075,12.408596 30.4948989,12.4059406 30.4900861,12.4027874 C30.4648602,12.3865233 30.4381406,12.3722507 30.4099274,12.3601357 C30.4012975,12.3563186 30.3928335,12.3529994 30.3835398,12.3493483 C30.3579819,12.3393907 30.3319262,12.3319225 30.3050407,12.32545 C30.295415,12.3232925 30.2866191,12.3208031 30.2769934,12.3189776 C30.2428057,12.3126711 30.208452,12.308854 30.1734344,12.3085221 C30.1717748,12.3085221 30.1707791,12.3076923 30.1697833,12.3076923 L10.8561897,12.3076923 C10.8551939,12.3076923 10.8545301,12.3085221 10.8532024,12.3085221 C10.8180189,12.3085221 10.7826694,12.3123392 10.7483157,12.3189776 C10.7390219,12.3208031 10.730392,12.3231266 10.7214301,12.3251181 C10.6940467,12.3315905 10.6671612,12.3393907 10.6414374,12.3493483 C10.6324756,12.3529994 10.6241776,12.3563186 10.6155477,12.3599697 C10.5875004,12.3720848 10.5607809,12.3865233 10.5345592,12.4031193 C10.5299123,12.4061066 10.5246016,12.408596 10.5202866,12.4115833 C10.4905798,12.4318304 10.4623666,12.4545669 10.4369747,12.4794609 C10.435647,12.4814524 10.4336555,12.4822822 10.4319959,12.4839418 C10.4280129,12.4880908 10.4246937,12.4934015 10.4203787,12.4978825 C10.4012933,12.5186275 10.3833696,12.5400363 10.3671056,12.5632707 C10.360965,12.5717346 10.3554884,12.5806965 10.3496798,12.5896583 C10.3354072,12.6125608 10.3227943,12.6362931 10.311509,12.6610211 C10.3075259,12.669651 10.303211,12.678281 10.2992279,12.6870768 C10.2977343,12.6915578 10.294747,12.6960387 10.2930874,12.7013494 C10.2827979,12.7290647 10.2758276,12.757112 10.2705169,12.785823 C10.269853,12.7873167 10.2691892,12.7888103 10.2691892,12.7906359 C10.2622189,12.8261513 10.257572,12.8615008 10.257406,12.8971822 C10.257406,12.9006673 10.2564103,12.9044844 10.2564103,12.9079696 L10.2564103,26.0632859 C10.2564103,26.0676009 10.257406,26.071252 10.257406,26.0749031 C10.257572,26.1102526 10.2608912,26.145934 10.2678615,26.1804537 C10.2681934,26.1811175 10.2685253,26.1821133 10.2688573,26.1824452 C10.2744999,26.2118201 10.2827979,26.2406972 10.2927555,26.2697402 C10.294747,26.2750509 10.2974024,26.2790339 10.2992279,26.2840127 C10.303211,26.2929746 10.3075259,26.3017704 10.311509,26.3107323 C10.3224623,26.3349624 10.3354072,26.3583628 10.3493478,26.3809334 C10.3551564,26.3903931 10.361297,26.4001847 10.3671056,26.4089806 C10.3830377,26.4308873 10.4006295,26.4517983 10.4187191,26.4715475 C10.4236979,26.4768582 10.4270171,26.4834966 10.4319959,26.4881435 C10.4336555,26.4894712 10.435647,26.4904669 10.4373066,26.4921265 C10.4623666,26.5171865 10.4902479,26.5394251 10.5192909,26.5593403 C10.5252654,26.5634893 10.5319038,26.5664766 10.5378784,26.5701277 C10.5626064,26.5853961 10.5884962,26.5996686 10.6148838,26.6112858 C10.6235138,26.6151029 10.6328075,26.6190859 10.6417693,26.6224051 C10.667991,26.6323627 10.6943787,26.6403288 10.7214301,26.6469672 C10.7300601,26.6489587 10.73869,26.6516141 10.7479837,26.6529418 C10.7836651,26.6592483 10.8198444,26.6640611 10.8561897,26.6640611 L30.1697833,26.6640611 C30.2057966,26.6640611 30.2421418,26.6592483 30.2779892,26.6529418 C30.2866191,26.6516141 30.2947512,26.6489587 30.3033811,26.6469672 C30.3312624,26.6403288 30.3586458,26.6320308 30.3851994,26.6217413 C30.3931654,26.6190859 30.4009656,26.6157667 30.4089316,26.6121156 C30.4381406,26.5996686 30.4661878,26.5847322 30.4930733,26.5674724 C30.4967245,26.564817 30.5007075,26.5634893 30.5046905,26.5605021 C30.5350612,26.540089 30.5631085,26.5171865 30.5893301,26.4911308 C30.5903259,26.490135 30.5919855,26.4894712 30.5933132,26.4881435 C30.5969643,26.4841605 30.5994537,26.4801774 30.6031048,26.4761944 C30.6233519,26.4542877 30.6426033,26.4315512 30.6595312,26.407155 C30.664676,26.3998528 30.6699867,26.3915548 30.6749655,26.3835887 C30.6902338,26.3593586 30.7041745,26.3336348 30.7156257,26.3074131 C30.7189449,26.3002768 30.7222641,26.2934724 30.7252514,26.2863362 C30.7275748,26.2810254 30.7305621,26.2760466 30.7322217,26.270404 C30.7428431,26.2430206 30.7491496,26.2148074 30.7549582,26.1870921 C30.7549582,26.1851006 30.7561199,26.1829431 30.7567838,26.1811175 C30.7634222,26.1452702 30.7672392,26.1099207 30.7679031,26.0739074 C30.7679031,26.0705882 30.7692308,26.067269 30.7692308,26.0632859 L30.7692308,12.9079696 C30.7692308,12.9044844 30.7679031,12.9014971 30.7679031,12.8976801 Z" id="Fill-1" fill="#FFFFFF"></path>
            </g>
        </g>
    </g>
</svg>