<svg width="188" height="34" xmlns="http://www.w3.org/2000/svg"><g fill="none" fill-rule="evenodd"><path d="M187.993 6.211V34h-6.715V1.687a17.946 17.946 0 0 0 6.715 4.524" fill="#6EC81E"/><path d="M0 19.056c2.256-.412 2.735-1.373 2.735-3.927V4.037C2.735 2.362 2.03 1.265 0 1.18V.688h6.344l4.736 14.221h.113L15.733.688h5.977v.493c-2.03.084-2.482.659-2.482 1.73v14.387c0 1.099.452 1.648 2.482 1.73v.522H13.9v-.522c1.918-.082 2.284-.576 2.284-1.73V2.5h-.14l-5.527 17.078h-.959L3.693 2.5h-.14v12.63c0 2.554.394 3.515 2.734 3.927v.494H0v-.494zM23.434 19.029c2.087-.082 2.538-.632 2.538-1.73V2.912c0-1.073-.451-1.648-2.538-1.73V.689h8.12v.493c-2.087.082-2.51.657-2.51 1.73v14.387c0 1.098.423 1.648 2.51 1.73v.52h-8.12v-.52zM36.63 19.029c2.143-.082 2.736-.632 2.736-1.73V1.348h-.846c-1.862 0-3.046 1.673-4.512 5.38l-.593-.028.17-6.011h14.633l.169 6.011-.592.029c-1.38-3.543-2.565-5.381-4.511-5.381h-.846v15.95c0 1.1.592 1.649 2.735 1.73v.521H36.63v-.52zM53.353 19.029c2.143-.082 2.735-.632 2.735-1.73V1.348h-.846c-1.86 0-3.045 1.673-4.512 5.38l-.592-.028.17-6.011H64.94L65.11 6.7l-.592.029c-1.38-3.543-2.565-5.381-4.511-5.381h-.846v15.95c0 1.1.592 1.649 2.735 1.73v.521h-8.543v-.52zM71.537 10.27c0-5.848 3.918-10.021 8.43-10.021 1.664 0 2.988.52 4.06 1.208L84.985.14h.508v6.616h-.564c-1.382-3.76-2.903-5.82-5.131-5.82-2.538 0-4.793 2.635-4.793 9.089 0 6.313 2.734 8.812 5.385 8.812 2.509 0 4.172-1.95 5.216-4.943l.677.275c-1.1 3.24-3.046 5.793-6.767 5.793-4.595 0-7.98-3.651-7.98-9.691M96.181 11.862L93.87 3.874h-.113l-2.593 7.988h5.018zm.226.687h-5.47l-.817 2.499c-.959 2.91-.762 3.596 1.466 4.008v.494h-5.582v-.494c1.662-.385 2.312-1.344 3.213-4.008L94.181.276h1.606l4.991 16.171c.564 1.84.959 2.307 2.79 2.609v.494h-8.007v-.494c2.256-.137 2.566-.685 2.115-2.252l-1.269-4.255zM103.742 19.056c2.256-.412 2.734-1.373 2.734-3.927V4.037c0-1.675-.704-2.772-2.734-2.856V.688h6.343l4.737 14.221h.112l4.54-14.221h5.978v.493c-2.03.084-2.482.659-2.482 1.73v14.387c0 1.099.451 1.648 2.482 1.73v.522h-7.81v-.522c1.916-.082 2.284-.576 2.284-1.73V2.5h-.143l-5.525 17.078h-.96L107.435 2.5h-.14v12.63c0 2.554.394 3.515 2.735 3.927v.494h-6.287v-.494zM134.054 10.792c3.102 0 3.834-1.895 3.834-4.832 0-2.636-.788-4.613-3.75-4.613h-1.577v9.445h1.493zm-7.077 8.237c2.03-.084 2.482-.633 2.482-1.73V2.912c0-1.072-.451-1.648-2.482-1.732V.687h7.275c5.159 0 6.935 2.335 6.935 5.19 0 2.662-1.86 5.6-7.048 5.6h-1.578V17.3c0 1.152.422 1.646 2.593 1.73v.52h-8.177v-.52zM144.798 14.306V2.911c0-1.07-.45-1.648-2.481-1.73V.688h7.868v.493c-1.974.082-2.313.606-2.313 1.73v11.093c0 3.624 1.832 4.942 4.51 4.942 1.213 0 2.285-.44 2.962-1.234.818-.935 1.212-2.144 1.212-4.23V5.08c0-2.554-.593-3.543-3.017-3.927V.688h6.485v.466c-2.283.439-2.622 1.373-2.622 3.927v8.786c0 3.625-1.833 6.123-6.09 6.123-4.145 0-6.514-1.978-6.514-5.684M161.331 13.428h.564c1.662 3.787 3.213 5.82 5.526 5.82 2.34 0 3.354-1.757 3.354-3.46 0-2.47-1.692-3.405-4.398-4.504-2.425-.988-4.82-2.058-4.82-5.215 0-3.542 2.481-5.794 5.78-5.794 1.381 0 2.678.413 3.524.853l.817-.989h.507v5.958h-.59c-1.41-3.625-2.82-5.135-4.625-5.135-1.608 0-2.988 1.154-2.988 3.294 0 2.253 1.69 3.132 4.257 4.146 2.397.989 4.764 2.142 4.764 5.327 0 2.938-1.634 6.206-5.864 6.206-1.382 0-2.961-.467-4.033-1.099l-1.297 1.209h-.478v-6.617z" fill="#000"/><polygon fill="#6EC81E" points="1.34285714 27.4615385 8.31094286 34 182.627229 34 181.284371 27.4615385"/></g></svg>