<?xml version="1.0" encoding="UTF-8"?>
<svg width="30px" height="40px" viewBox="0 0 30 40" version="1.1" xmlns="http://www.w3.org/2000/svg" xmlns:xlink="http://www.w3.org/1999/xlink">
    <!-- Generator: Sketch 50 (54983) - http://www.bohemiancoding.com/sketch -->
    <title>Fill 1</title>
    <desc>Created with Sketch.</desc>
    <defs></defs>
    <g id="Page-1" stroke="none" stroke-width="1" fill="none" fill-rule="evenodd">
        <g id="Workers-view" transform="translate(-173.000000, -504.000000)" fill="#FFFFFF">
            <path d="M178.736836,528.564967 L196.440454,528.564967 L196.440454,526.210936 L178.736836,526.210936 M178.736836,523.392962 L196.440454,523.392962 L196.440454,521.038931 L178.736836,521.038931 M178.736836,518.2213 L196.440454,518.2213 L196.440454,515.867268 L178.736836,515.867268 M199.823602,541.646312 L175.353688,541.646312 L175.353688,506.353688 L193.880531,506.353688 L193.880531,511.197639 C193.880531,511.486917 193.997203,511.770019 194.203782,511.974195 C194.407615,512.179744 194.690373,512.296073 194.979994,512.296073 L199.823602,512.296073 L199.823602,541.646312 Z M196.079457,507.940085 L198.237205,510.098862 L196.079457,510.098862 L196.079457,507.940085 Z M195.81317,504.344526 C195.592523,504.125937 195.290205,504 194.979994,504 L174.175986,504 C173.867148,504 173.563458,504.125937 173.345212,504.344526 C173.124565,504.563458 173,504.866462 173,505.176672 L173,542.823671 C173,543.132852 173.124565,543.435513 173.345212,543.655131 C173.563458,543.874063 173.867148,544 174.175986,544 L201.000961,544 C201.311171,544 201.613833,543.874063 201.833107,543.655131 C202.053755,543.435513 202.178663,543.132852 202.178663,542.823671 L202.178663,511.197639 C202.178663,510.888115 202.053755,510.584767 201.833107,510.365149 L195.81317,504.344526 Z" id="Fill-1"></path>
        </g>
    </g>
</svg>