<?xml version="1.0" encoding="UTF-8"?>
<svg width="40px" height="40px" viewBox="0 0 40 40" version="1.1" xmlns="http://www.w3.org/2000/svg" xmlns:xlink="http://www.w3.org/1999/xlink">
    <!-- Generator: Sketch 50.2 (55047) - http://www.bohemiancoding.com/sketch -->
    <title>ring</title>
    <desc>Created with Sketch.</desc>
    <defs></defs>
    <g id="Page-1" stroke="none" stroke-width="1" fill="none" fill-rule="evenodd">
        <g id="contacts" transform="translate(-303.000000, -280.000000)">
            <g id="ring" transform="translate(303.000000, 280.000000)">
                <rect id="Rectangle-17" fill="#6EC81E" x="0" y="0" width="40" height="40" rx="3"></rect>
                <path d="M27.9911401,21.1545855 L27.9890173,21.2121128 C27.9741579,21.8551022 27.638759,22.4452343 27.0868368,22.7912471 C24.4970481,24.4236631 21.4996861,25.2878459 18.4237814,25.2878459 C15.3478766,25.2878459 12.3526373,24.4236631 9.76072587,22.7912471 C9.21092647,22.4452343 8.87340482,21.8551022 8.85854538,21.22676 L8.8564226,19.3440685 C9.51660644,19.6877462 10.2404736,19.8596912 10.9664636,19.8596912 C11.6606118,19.8596912 12.3568829,19.7026056 12.995839,19.3863118 L12.995839,21.5409311 L13.3970439,21.7001394 C14.9954955,22.3327271 16.6873493,22.6553893 18.4237814,22.6553893 C20.145354,22.6553893 21.8265939,22.3369727 23.4250454,21.7086305 L23.8517237,21.5345627 L23.8517237,19.3863118 C24.4906798,19.7026056 25.1869509,19.8596912 25.8810992,19.8596912 C26.6049663,19.8596912 27.3309563,19.6877462 27.9911401,19.3440685 L27.9911401,21.1545855 Z M9.03049037,17.9173497 C9.14724314,17.7880725 9.31706535,17.713563 9.49325589,17.713563 L12.3590057,17.713563 C12.5712834,17.713563 12.7602107,17.8175791 12.8748406,17.9789102 C11.726418,18.791934 10.1874042,18.7879008 9.04110426,17.9682963 L9.00713981,17.9449458 C9.01350815,17.9343319 9.02199926,17.9258408 9.03049037,17.9173497 Z M24.488557,17.713563 L27.3543068,17.713563 C27.5347429,17.713563 27.6981968,17.7857375 27.8255635,17.923718 C27.8319318,17.9302986 27.8361773,17.9364547 27.8425457,17.942823 L27.8064585,17.9682963 C26.6601585,18.7879008 25.1211448,18.791934 23.9727221,17.9789102 C24.0894748,17.8175791 24.2762793,17.713563 24.488557,17.713563 Z M28.7574628,17.0555019 C28.3987134,16.6651231 27.887124,16.4398964 27.3543068,16.4398964 L24.488557,16.4398964 C23.4356593,16.4398964 22.5780572,17.2974986 22.5780572,18.3503963 L22.5780572,18.4694841 L22.5780572,18.5499374 L22.5780572,20.6663467 C21.2470756,21.1418489 19.8502879,21.3817227 18.4237814,21.3817227 C16.9930292,21.3817227 15.5983643,21.1418489 14.2695055,20.6663467 L14.2695055,18.5520602 L14.2695055,18.4650263 L14.2695055,18.3503963 C14.2695055,17.2974986 13.4119034,16.4398964 12.3590057,16.4398964 L9.49325589,16.4398964 C8.95831593,16.4398964 8.44672652,16.6670336 8.09646821,17.0512564 C7.7653149,17.4015147 7.58275603,17.8642802 7.58275603,18.3503963 L7.58487881,21.2416194 C7.60822936,22.3114993 8.16864265,23.2943454 9.08143703,23.8696181 C11.8771352,25.6294008 15.1058799,26.5615124 18.4237814,26.5615124 C21.7416828,26.5615124 24.9725503,25.6294008 27.7661257,23.8696181 C28.6789201,23.2943454 29.2393334,22.3114993 29.2626839,21.2501105 L29.2648067,18.3503963 C29.2648067,17.8621574 29.0822478,17.3996042 28.7574628,17.0555019 Z" id="Fill-1" fill="#FFFFFF" transform="translate(18.423781, 21.500704) rotate(-315.000000) translate(-18.423781, -21.500704) "></path>
            </g>
        </g>
    </g>
</svg>