<?xml version="1.0" encoding="UTF-8"?>
<svg width="18px" height="18px" viewBox="0 0 18 18" version="1.1" xmlns="http://www.w3.org/2000/svg" xmlns:xlink="http://www.w3.org/1999/xlink">
    <!-- Generator: Sketch 50 (54983) - http://www.bohemiancoding.com/sketch -->
    <title>ion-android-search - Ionicons</title>
    <desc>Created with Sketch.</desc>
    <defs></defs>
    <g id="Page-1" stroke="none" stroke-width="1" fill="none" fill-rule="evenodd">
        <g id="H-menu" transform="translate(-32.000000, -303.000000)" fill="#FFFFFF">
            <path d="M44.84375,314.296875 L50,319.453125 L48.453125,321 L43.34375,315.84375 L43.34375,315.046875 L43.015625,314.765625 C41.7656187,315.82813 40.3125083,316.359375 38.65625,316.359375 C36.8124908,316.359375 35.242194,315.710944 33.9453125,314.414062 C32.648431,313.117181 32,311.546884 32,309.703125 C32,307.859366 32.648431,306.281257 33.9453125,304.96875 C35.242194,303.656243 36.7968659,303 38.609375,303 C40.4531342,303 42.023431,303.656243 43.3203125,304.96875 C44.617194,306.281257 45.265625,307.859366 45.265625,309.703125 C45.265625,311.359383 44.7343803,312.812494 43.671875,314.0625 L44,314.296875 L44.84375,314.296875 Z M35.375,312.984375 C36.2812545,313.859379 37.3749936,314.296875 38.65625,314.296875 C39.9375064,314.296875 41.0312455,313.851567 41.9375,312.960938 C42.8437545,312.070308 43.296875,310.984381 43.296875,309.703125 C43.296875,308.421869 42.8437545,307.32813 41.9375,306.421875 C41.0312455,305.51562 39.9375064,305.0625 38.65625,305.0625 C37.3749936,305.0625 36.289067,305.51562 35.3984375,306.421875 C34.507808,307.32813 34.0625,308.421869 34.0625,309.703125 C34.0625,310.984381 34.4999956,312.07812 35.375,312.984375 Z" id="ion-android-search---Ionicons"></path>
        </g>
    </g>
</svg>