<svg width="18" height="18" xmlns="http://www.w3.org/2000/svg"><path d="M12.844 11.297L18 16.453 16.453 18l-5.11-5.156v-.797l-.327-.281c-1.25 1.062-2.703 1.593-4.36 1.593-1.844 0-3.414-.648-4.71-1.945C.647 10.117 0 8.547 0 6.704 0 4.858.648 3.28 1.945 1.968 3.242.656 4.797 0 6.61 0c1.844 0 3.414.656 4.711 1.969 1.297 1.312 1.946 2.89 1.946 4.734 0 1.656-.532 3.11-1.594 4.36l.328.234h.844zM3.375 9.984c.906.875 2 1.313 3.281 1.313 1.282 0 2.375-.445 3.282-1.336.906-.89 1.359-1.977 1.359-3.258s-.453-2.375-1.36-3.281c-.906-.906-2-1.36-3.28-1.36-1.282 0-2.368.454-3.259 1.36-.89.906-1.336 2-1.336 3.281 0 1.281.438 2.375 1.313 3.281z" fill="#FFF" fill-rule="evenodd"/></svg>