<svg width="20" height="40" xmlns="http://www.w3.org/2000/svg" xmlns:xlink="http://www.w3.org/1999/xlink"><defs><polygon id="a" points="0.00334494774 0.0493333333 19.5070662 0.0493333333 19.5070662 39.9966667 0.00334494774 39.9966667"/></defs><g fill="none" fill-rule="evenodd"><mask id="b" fill="#fff"><use xlink:href="#a"/></mask><polyline fill="#FFF" mask="url(#b)" points="19.5070662 8.55422222 18.6983136 6.76372222 18.8393589 5.42094444 18.1343554 4.41377778 17.2888084 2.2875 15.9127526 1.28027778 14.3079582 1.28027778 13.2253101 0.0493333333 11.8952474 0.0493333333 11.8952474 1.78388889 10.8289338 1.44816667 9.49887108 1.44816667 9.56047387 2.903 8.23007666 2.903 7.03191638 4.91727778 7.45471777 5.98033333 6.04510105 7.71494444 6.53853659 8.71255556 4.98776307 8.7145 4.98776307 11.551 3.66511498 13.4221667 4.51088502 13.4221667 3.99587456 14.9328889 2.8897561 14.9328889 1.69165157 16.0520556 1.48013937 17.3389444 1.76206272 18.0104444 1.48013937 19.2413889 1.93466202 20.1174444 1.62112892 21.9271667 2.78405575 22.8502778 2.78405575 23.7175556 1.76206272 23.7175556 2.607777 25.3961667 2.32590941 27.0748889 1.26862718 27.0748889 1.05722648 27.914 0.958271777 29.2511667 0 29.2568333 0.211400697 30.9355556 1.62112892 34.1808889 2.37814634 36.4231667 3.66511498 36.4256667 3.66511498 37.2023889 2.81934495 37.2023889 3.66511498 38.7005 3.66511498 40 6.49349129 40 6.34347038 38.9368333 7.33017422 37.5021667 9.58578397 37.5021667 10.7838885 33.9011111 10.642899 30.4320556 13.9555122 28.0259444 13.9555122 26.4032778 12.9689199 25.0044444 10.9953449 24.9854444 10.2199861 21.5353889 11.3018537 17.5067778 15.0833171 14.6532222 16.4766551 12.7507222 15.4192056 11.6876111 16.8995122 8.55422222 19.5070662 8.55422222"/><polyline fill="#D4EDF4" points="10.7317073 38.0487805 11.6184087 35.9473388 11.7073171 34.1463415 10.8203851 35.9473388 10.7317073 38.0487805"/><polyline fill="#D4EDF4" points="12.8884641 34.1463415 14.0466051 32.9447422 14.0466051 32.3959561 14.6341463 31.2195122 13.2427159 31.8261012 12.6829268 32.5159207 12.8884641 34.1463415"/></g></svg>