<?xml version="1.0" encoding="UTF-8"?>
<svg width="20px" height="20px" viewBox="0 0 20 20" version="1.1" xmlns="http://www.w3.org/2000/svg" xmlns:xlink="http://www.w3.org/1999/xlink">
    <!-- Generator: Sketch 50 (54983) - http://www.bohemiancoding.com/sketch -->
    <title>Fill 1</title>
    <desc>Created with Sketch.</desc>
    <defs></defs>
    <g id="Symbols" stroke="none" stroke-width="1" fill="none" fill-rule="evenodd">
        <g id="ring" transform="translate(-9.000000, -10.000000)" fill="#FFFFFF">
            <path d="M27.2913616,20.6257209 L27.2892919,20.68181 C27.2748039,21.3087246 26.94779,21.8841035 26.4096659,22.2214659 C23.8846219,23.8130715 20.962194,24.6556497 17.9631868,24.6556497 C14.9641797,24.6556497 12.0438214,23.8130715 9.51670772,22.2214659 C8.9806533,21.8841035 8.6515697,21.3087246 8.63708175,20.696091 L8.63501204,18.8604668 C9.27869128,19.1955525 9.98446177,19.3631989 10.692302,19.3631989 C11.3690965,19.3631989 12.0479608,19.2100405 12.670943,18.901654 L12.670943,21.0024078 L13.0621178,21.1576359 C14.6206081,21.7744089 16.2701655,22.0890046 17.9631868,22.0890046 C19.6417202,22.0890046 21.280929,21.7785484 22.8394193,21.1659147 L23.2554306,20.9961987 L23.2554306,18.901654 C23.8784128,19.2100405 24.5572771,19.3631989 25.2340717,19.3631989 C25.9398422,19.3631989 26.6476824,19.1955525 27.2913616,18.8604668 L27.2913616,20.6257209 Z M8.80472811,17.4694159 C8.91856206,17.3433707 9.08413871,17.2707239 9.25592449,17.2707239 L12.0500305,17.2707239 C12.2570014,17.2707239 12.4412054,17.3721396 12.5529696,17.5294375 C11.4332575,18.3221357 9.93271907,18.3182032 8.81507665,17.5190889 L8.78196132,17.4963221 C8.78817044,17.4859736 8.79644928,17.4776948 8.80472811,17.4694159 Z M23.8763431,17.2707239 L26.6704492,17.2707239 C26.8463743,17.2707239 27.0057419,17.341094 27.1299244,17.475625 C27.1361335,17.4820411 27.1402729,17.4880433 27.146482,17.4942524 L27.111297,17.5190889 C25.9936546,18.3182032 24.4931161,18.3221357 23.373404,17.5294375 C23.487238,17.3721396 23.6693723,17.2707239 23.8763431,17.2707239 Z M28.0385263,16.6291144 C27.6887456,16.2484951 27.1899459,16.028899 26.6704492,16.028899 L23.8763431,16.028899 C22.8497678,16.028899 22.0136057,16.8650611 22.0136057,17.8916364 L22.0136057,18.007747 L22.0136057,18.086189 L22.0136057,20.149688 C20.7158987,20.6133027 19.3540307,20.8471797 17.9631868,20.8471797 C16.5682035,20.8471797 15.2084052,20.6133027 13.9127679,20.149688 L13.9127679,18.0882587 L13.9127679,18.0034006 L13.9127679,17.8916364 C13.9127679,16.8650611 13.0766058,16.028899 12.0500305,16.028899 L9.25592449,16.028899 C8.73435803,16.028899 8.23555836,16.2503578 7.89405651,16.624975 C7.57118203,16.9664768 7.39318713,17.4176732 7.39318713,17.8916364 L7.39525684,20.7105789 C7.41802363,21.7537119 7.96442659,22.7119868 8.8544011,23.2728777 C11.5802068,24.9886658 14.7282329,25.8974746 17.9631868,25.8974746 C21.1981407,25.8974746 24.3482366,24.9886658 27.0719725,23.2728777 C27.9619471,22.7119868 28.50835,21.7537119 28.5311168,20.7188578 L28.5331865,17.8916364 C28.5331865,17.4156035 28.3551916,16.9646141 28.0385263,16.6291144 Z" id="Fill-1" transform="translate(17.963187, 20.963187) rotate(-315.000000) translate(-17.963187, -20.963187) "></path>
        </g>
    </g>
</svg>