<svg width="20" height="20" xmlns="http://www.w3.org/2000/svg"><path d="M15.798 17.32l-.041.039a1.864 1.864 0 0 1-1.711.466 15.821 15.821 0 0 1-7.694-4.25A15.827 15.827 0 0 1 2.101 5.88a1.864 1.864 0 0 1 .457-1.7l1.296-1.3a4.461 4.461 0 0 0 2.825 2.883L5.193 7.25l.167.386a13.265 13.265 0 0 0 2.807 4.124 13.268 13.268 0 0 0 4.1 2.796l.415.174 1.481-1.481a4.461 4.461 0 0 0 2.883 2.824l-1.248 1.249zM4.958 2.018a.61.61 0 0 1 .46.178l1.975 1.976a.616.616 0 0 1 .173.539A3.224 3.224 0 0 1 4.93 2.06l-.007-.04c.011-.003.023-.003.035-.003zm10.797 10.516l1.976 1.976a.613.613 0 0 1 .18.47l-.001.025-.043-.007a3.224 3.224 0 0 1-2.65-2.636.618.618 0 0 1 .538.172zm3.397 2.49a1.863 1.863 0 0 0-.543-1.392l-1.976-1.976a1.866 1.866 0 0 0-2.634 0l-.082.082-.055.056-1.46 1.459a12 12 0 0 1-3.357-2.37 11.974 11.974 0 0 1-2.37-3.358l1.457-1.458.06-.06.079-.079a1.866 1.866 0 0 0 0-2.634L6.295 1.317A1.851 1.851 0 0 0 4.911.776c-.47.013-.915.206-1.25.541L1.669 3.312a3.107 3.107 0 0 0-.78 2.844 17.072 17.072 0 0 0 4.585 8.296 17.067 17.067 0 0 0 8.297 4.585 3.104 3.104 0 0 0 2.838-.774l2-1.998c.337-.336.53-.781.543-1.242z" fill="#FFF" fill-rule="evenodd"/></svg>