<svg width="40" height="32" xmlns="http://www.w3.org/2000/svg"><g fill="#000" fill-rule="evenodd"><polyline points="9.34685598 24.9656737 8.35999777 24 5.25785058 27.0342069 2.1557034 24 1.168357 24.9656737 4.27050418 27.9997612 1.168357 31.0342069 2.1557034 32 5.25785058 28.9656737 8.35999777 32 9.34685598 31.0342069 6.24495289 27.9997612 9.34685598 24.9656737"/><path d="M37.39 2.993l-6.529-.511c-.344-.062-.324-.156-.34-.209.02-.052-.02-.127.313-.181l6.555-.514c.532.014.903.352.904.708-.001.356-.372.694-.904.707zm-9.874.36V1.218h1.05v2.135h-1.05zm-2.296-.871l-6.528.51c-.532-.012-.902-.35-.903-.706 0-.356.371-.694.903-.708l6.556.514c.333.054.292.13.313.181-.017.053.003.147-.341.209zM37.363.36h-.03l-6.644.52c-.252.018-.485.08-.692.171V0h-3.913v1.051a2.078 2.078 0 0 0-.692-.17L18.75.36h-.03c-1.272 0-2.356.831-2.362 1.925.006 1.093 1.09 1.924 2.361 1.925h.032l6.643-.52.022-.002c.244-.026.47-.089.67-.18V4.57h3.912V3.51c.2.091.425.154.67.18l.021.002 6.643.52h.032c1.271-.001 2.355-.832 2.361-1.925-.006-1.094-1.09-1.924-2.36-1.926zM9.05 21.189v-1.105c0-1.27.548-2.427 1.448-3.283a5.017 5.017 0 0 1 3.46-1.366h22.838v-6.91H13.96C7.22 8.54 1.776 13.7 1.76 20.085v1.104h7.29zM0 22.857v-2.774C.018 12.78 6.248 6.875 13.957 6.857h24.599v10.246H13.958a3.192 3.192 0 0 0-2.216.878c-.594.572-.928 1.283-.931 2.104v2.772H0z"/></g></svg>